<svg xmlns="http://www.w3.org/2000/svg" width="21.579" height="21.579" viewBox="0 0 21.579 21.579"><defs><style>.a{fill:#a25723;}</style></defs><path class="a" d="M10.79,21.579a10.79,10.79,0,1,1,10.79-10.79A10.8,10.8,0,0,1,10.79,21.579Zm0-20.038a9.248,9.248,0,1,0,9.248,9.248A9.259,9.259,0,0,0,10.79,1.541Zm0,0"/><path class="a" d="M154.764,155.536a.768.768,0,0,1-.545-.226l-7.707-7.707a.771.771,0,0,1,1.09-1.09l7.707,7.707a.771.771,0,0,1-.545,1.316Zm0,0" transform="translate(-140.121 -140.123)"/><path class="a" d="M147.056,155.535a.771.771,0,0,1-.545-1.316l7.707-7.707a.771.771,0,0,1,1.09,1.09l-7.707,7.707A.768.768,0,0,1,147.056,155.535Zm0,0" transform="translate(-140.12 -140.121)"/></svg>