<svg xmlns="http://www.w3.org/2000/svg" id="envelope" width="21.028" height="15.77" viewBox="0 0 21.028 15.77">
    <defs>
        <style>
            .cls-1{fill-rule:evenodd}
        </style>
    </defs>
    <path id="Path_164" d="M18.5 1.514H2.728a1.314 1.314 0 0 0-1.314 1.314v10.514a1.314 1.314 0 0 0 1.314 1.314H18.5a1.314 1.314 0 0 0 1.314-1.314V2.828A1.314 1.314 0 0 0 18.5 1.514zM2.728.2A2.628 2.628 0 0 0 .1 2.828v10.514a2.628 2.628 0 0 0 2.628 2.628H18.5a2.628 2.628 0 0 0 2.628-2.628V2.828A2.628 2.628 0 0 0 18.5.2z" class="cls-1" transform="translate(-.1 -.2)"/>
    <path id="Path_165" d="M.193.62A.657.657 0 0 1 1.1.393L10.614 6.1 20.133.393a.657.657 0 1 1 .676 1.128L10.614 7.637.42 1.522a.657.657 0 0 1-.226-.9z" class="cls-1" transform="translate(-.1 2.328)"/>
</svg>
