<svg xmlns="http://www.w3.org/2000/svg" width="15.001" height="15" viewBox="0 0 15.001 15"><rect width="3.494" height="9.985" transform="translate(0 5.015)" fill="#3d83d9"/><path d="M369.339,420.023a1.748,1.748,0,1,0,1.747,1.747A1.749,1.749,0,0,0,369.339,420.023Z" transform="translate(-367.592 -420.023)" fill="#3d83d9"/><path d="M403.2,446.844c-.235-1.882-1.176-3.067-3.72-3.067-1.806,0-2.524.282-2.938,1.07h0v-1.07h-2.828v9.985h2.911v-5.227c0-1.3.247-2.29,1.86-2.29,1.59,0,1.718,1.213,1.718,2.375v5.142h3S403.255,447.284,403.2,446.844Z" transform="translate(-388.223 -438.762)" fill="#3d83d9"/></svg>