<svg xmlns="http://www.w3.org/2000/svg" width="20.341" height="20.341" viewBox="0 0 20.341 20.341"><defs><style>.a{fill:#603312;}</style></defs><circle class="a" cx="1" cy="1" r="1" transform="translate(10.34 7.341)"/><circle class="a" cx="1" cy="1" r="1" transform="translate(10.34 10.341)"/><circle class="a" cx="1" cy="1" r="1" transform="translate(14.34 7.341)"/><path class="a" d="M19.546,9.932a.8.8,0,0,0,.795-.795V4.767a3.182,3.182,0,0,0-3.178-3.178H16.13V.795a.795.795,0,1,0-1.589,0v.795H10.925V.795a.795.795,0,1,0-1.589,0v.795H5.761V.795a.795.795,0,0,0-1.589,0v.795H3.178A3.182,3.182,0,0,0,0,4.767v12.4a3.182,3.182,0,0,0,3.178,3.178H13.19a.8.8,0,0,0,.08,0c.026,0,.052,0,.079,0a.8.8,0,0,0,.573-.243l6.2-6.436a.795.795,0,0,0-.572-1.346H15.733a3.182,3.182,0,0,0-3.178,3.178v3.258H3.178a1.591,1.591,0,0,1-1.589-1.589V4.767A1.591,1.591,0,0,1,3.178,3.178h.993v.795a.795.795,0,0,0,1.589,0V3.178H9.336v.795a.795.795,0,0,0,1.589,0V3.178h3.615v.795a.795.795,0,0,0,1.589,0V3.178h1.033a1.591,1.591,0,0,1,1.589,1.589v4.37A.8.8,0,0,0,19.546,9.932Zm-5.4,5.562a1.591,1.591,0,0,1,1.589-1.589h1.946l-3.535,3.671Z"/><circle class="a" cx="1" cy="1" r="1" transform="translate(4.34 7.341)"/><circle class="a" cx="1" cy="1" r="1" transform="translate(7.34 10.341)"/><circle class="a" cx="1" cy="1" r="1" transform="translate(4.34 14.341)"/><circle class="a" cx="1" cy="1" r="1" transform="translate(4.34 10.341)"/><circle class="a" cx="1" cy="1" r="1" transform="translate(7.34 14.341)"/><circle class="a" cx="1" cy="1" r="1" transform="translate(7.34 7.341)"/></svg>