<svg xmlns="http://www.w3.org/2000/svg" width="38" height="38" viewBox="0 0 38 38"><defs><style>.a{fill:#557a35;}.b{fill:#fff;}</style></defs><g transform="translate(-112 -635)"><circle class="a" cx="19" cy="19" r="19" transform="translate(112 635)"/><g transform="translate(122.005 644.005)"><path class="b" d="M18.416,4.774h-3.41V.682A.682.682,0,0,0,14.323,0H.682A.682.682,0,0,0,0,.682V16.369A2.728,2.728,0,0,0,2.728,19.1H16.369A2.728,2.728,0,0,0,19.1,16.369V5.456A.682.682,0,0,0,18.416,4.774ZM5.456,3.41H9.549a.682.682,0,1,1,0,1.364H5.456a.682.682,0,1,1,0-1.364Zm6.139,12.959H3.41a.682.682,0,1,1,0-1.364h8.185a.682.682,0,0,1,0,1.364Zm0-2.728H3.41a.682.682,0,1,1,0-1.364h8.185a.682.682,0,1,1,0,1.364Zm0-2.728H3.41a.682.682,0,1,1,0-1.364h8.185a.682.682,0,0,1,0,1.364Zm0-2.728H3.41a.682.682,0,1,1,0-1.364h8.185a.682.682,0,0,1,0,1.364Zm6.139,8.185a1.364,1.364,0,0,1-2.728,0V6.139h2.728V16.369Z"/></g></g></svg>