<svg xmlns="http://www.w3.org/2000/svg" width="38" height="38" viewBox="0 0 38 38"><defs><style>.a{fill:#557a35;}.b{fill:#fff;}</style></defs><g transform="translate(-112 -635)"><circle class="a" cx="19" cy="19" r="19" transform="translate(112 635)"/><g transform="translate(121 643)"><path class="b" d="M11.394,1.792h-.986a2.47,2.47,0,0,0-4.75,0H4.672A.677.677,0,0,0,4,2.465V3.809A1.576,1.576,0,0,0,5.568,5.377H10.5a1.576,1.576,0,0,0,1.568-1.568V2.465A.677.677,0,0,0,11.394,1.792Z" transform="translate(-0.415)"/><path class="b" d="M12.771,3h-.224V4.12a2.463,2.463,0,0,1-2.465,2.465H5.153A2.463,2.463,0,0,1,2.689,4.12V3H2.465A2.463,2.463,0,0,0,0,5.465v11.2a2.463,2.463,0,0,0,2.465,2.465H8.371A7.831,7.831,0,0,1,7.627,16H3.361a.672.672,0,1,1,0-1.344H7.7a8.2,8.2,0,0,1,.394-1.568H3.361a.672.672,0,1,1,0-1.344H8.738A7.757,7.757,0,0,1,9.975,10.17H3.361a.672.672,0,1,1,0-1.344h8.46a7.727,7.727,0,0,1,3.415-.887V5.465A2.463,2.463,0,0,0,12.771,3Z" transform="translate(0 -0.311)"/><path class="b" d="M16.549,10.5A6.049,6.049,0,1,0,22.6,16.549,6.056,6.056,0,0,0,16.549,10.5Zm-.567,9.208-2.465-2.016a.9.9,0,0,1,.567-1.59h1.568V14.085a.9.9,0,1,1,1.792,0V16.1h1.568a.9.9,0,0,1,.567,1.59l-2.465,2.016a.9.9,0,0,1-1.135,0Z" transform="translate(-1.09 -1.09)"/></g></g></svg>