<svg xmlns="http://www.w3.org/2000/svg" width="38" height="38" viewBox="0 0 38 38"><defs><style>.a{fill:#557a35;}.b{fill:#fff;}</style></defs><g transform="translate(-112 -635)"><circle class="a" cx="19" cy="19" r="19" transform="translate(112 635)"/><g transform="translate(120 645)"><path class="b" d="M203.981,0h-9.243A1.937,1.937,0,0,0,192.8,1.937V6.49l1.509.75.754-1.509a1.849,1.849,0,1,1,3.308,1.654l-1.344,2.689a2.808,2.808,0,0,1-.1,1.062h.887l-2.34,6.435a.616.616,0,1,0,1.158.421l2.493-6.857h.432l2.519,6.859a.616.616,0,0,0,1.157-.425l-2.363-6.434h3.105A1.937,1.937,0,0,0,205.918,9.2V1.937A1.937,1.937,0,0,0,203.981,0ZM202.66,8.5h-2.766a.616.616,0,0,1,0-1.233h2.766a.616.616,0,0,1,0,1.233Zm0-2.311h-2.766a.616.616,0,0,1,0-1.233h2.766a.616.616,0,0,1,0,1.233Zm0-2.311h-6.6a.616.616,0,0,1,0-1.233h6.6a.616.616,0,0,1,0,1.233Zm0,0" transform="translate(-184.878)"/><path class="b" d="M10.845,39.639a1.594,1.594,0,0,0,.017-.978l1.53-3.059a.616.616,0,1,0-1.1-.551l-1.3,2.609L7.065,36.207a5.286,5.286,0,0,0-2.6-.838H3.918a2.685,2.685,0,1,0-1.955-.845,2.678,2.678,0,0,0,1.955.845,3.937,3.937,0,0,0-2.769,1.147A3.886,3.886,0,0,0,0,39.287v1.981A1.94,1.94,0,0,0,1.32,43.1v3.445a.616.616,0,0,0,.616.616H5.9a.616.616,0,0,0,.616-.616V39.623l1.973.987a1.688,1.688,0,0,0,2.355-.964l0-.007Zm0,0" transform="translate(0 -28.767)"/></g></g></svg>