<svg xmlns="http://www.w3.org/2000/svg" width="38" height="38" viewBox="0 0 38 38"><defs><style>.a{fill:#557a35;}.b{fill:#fff;}</style></defs><g transform="translate(-112 -635)"><circle class="a" cx="19" cy="19" r="19" transform="translate(112 635)"/><g transform="translate(121 635.869)"><g transform="translate(1.926 9.377)"><path class="b" d="M56.828,11.688c-.055-.051-.112-.1-.17-.152a9.081,9.081,0,0,0-6.079-2.159h0A.578.578,0,0,0,50,9.955v.413A25.741,25.741,0,0,1,56.828,11.688Z" transform="translate(-50.001 -9.377)"/><path class="b" d="M288.481,11.123a25.321,25.321,0,0,1,5.111-.759V9.955a.578.578,0,0,0-.578-.578,9.081,9.081,0,0,0-6.079,2.159l-.09.079C287.315,11.452,287.861,11.283,288.481,11.123Z" transform="translate(-277.721 -9.377)"/></g><path class="b" d="M19.145,64.141A21.887,21.887,0,0,0,9.861,66v.011A23.75,23.75,0,0,0,.578,64.141.578.578,0,0,0,0,64.719V78.528a.578.578,0,0,0,.578.578,22.534,22.534,0,0,1,9.027,1.866.577.577,0,0,0,.256.06h.05l.026,0,.014,0,.023,0,.015,0,.022-.005.016,0L10.049,81l.016-.006.02-.008.016-.007.02-.01.015-.008.006,0a20.142,20.142,0,0,1,9-1.853.578.578,0,0,0,.578-.578V64.719A.578.578,0,0,0,19.145,64.141ZM2.292,67.134a.578.578,0,0,1,.63-.575,23.21,23.21,0,0,1,4.78.929.578.578,0,0,1,.406.552v2.311a.578.578,0,0,1-.749.552,22.056,22.056,0,0,0-4.541-.882.578.578,0,0,1-.526-.575V67.134Zm5.79,10.322a.577.577,0,0,1-.723.38,22.055,22.055,0,0,0-4.541-.882.578.578,0,0,1,.1-1.151,23.211,23.211,0,0,1,4.78.929A.578.578,0,0,1,8.082,77.456Zm0-2.311a.577.577,0,0,1-.723.38,22.055,22.055,0,0,0-4.541-.882.578.578,0,0,1,.1-1.151,23.211,23.211,0,0,1,4.78.929A.578.578,0,0,1,8.082,75.145Zm0-2.311a.577.577,0,0,1-.723.38,22.056,22.056,0,0,0-4.541-.882.578.578,0,1,1,.1-1.151,23.21,23.21,0,0,1,4.78.929A.578.578,0,0,1,8.082,72.833Zm8.8,4.121a22.057,22.057,0,0,0-4.541.882.578.578,0,1,1-.343-1.1,23.211,23.211,0,0,1,4.78-.929.578.578,0,1,1,.1,1.151Zm0-2.311a22.056,22.056,0,0,0-4.541.882.578.578,0,1,1-.343-1.1,23.211,23.211,0,0,1,4.78-.929.578.578,0,0,1,.1,1.151Zm0-2.311a22.057,22.057,0,0,0-4.541.882A.578.578,0,1,1,12,72.11a23.211,23.211,0,0,1,4.78-.929.578.578,0,0,1,.1,1.151Zm0-2.311a22.056,22.056,0,0,0-4.541.882A.578.578,0,1,1,12,69.8a23.211,23.211,0,0,1,4.78-.929.578.578,0,0,1,.1,1.151Zm0-2.311a22.056,22.056,0,0,0-4.541.882.578.578,0,1,1-.343-1.1,23.211,23.211,0,0,1,4.78-.929.578.578,0,0,1,.1,1.151Z" transform="translate(0 -52.654)"/></g></g></svg>