<svg xmlns="http://www.w3.org/2000/svg" width="68" height="68" viewBox="0 0 68 68"><defs><style>.a{fill:#557a35;}.b{fill:#fff;}</style></defs><g transform="translate(-124 -659)"><circle class="a" cx="34" cy="34" r="34" transform="translate(124 659)"/><g transform="translate(141 675)"><path class="b" d="M20.094,27H8.406a1.031,1.031,0,0,1-1.019-.875L6.012,17.188A1.03,1.03,0,0,1,7.031,16H21.469a1.032,1.032,0,0,1,1.019,1.189l-1.375,8.937A1.031,1.031,0,0,1,20.094,27Z" transform="translate(2.251 6)"/><circle class="b" cx="5.5" cy="5.5" r="5.5" transform="translate(11 0)"/><path class="b" d="M31.924,15.625A9.994,9.994,0,0,0,27.5,8.049,2.084,2.084,0,1,0,26.466,9.84a7.925,7.925,0,0,1,3.395,5.785H27.418a6.538,6.538,0,0,0-6.449-5.5H12.032a6.538,6.538,0,0,0-6.449,5.5H1.032a1.048,1.048,0,0,0-.976,1.389l2.75,7.563a1.045,1.045,0,0,0,.976.674H6.147l-.605-3.891a3.8,3.8,0,0,1,.866-3.039A3.852,3.852,0,0,1,9.282,17H23.719a3.781,3.781,0,0,1,3.74,4.359l-.605,3.891h2.365a1.045,1.045,0,0,0,.976-.674l2.75-7.562a1.045,1.045,0,0,0-1.022-1.389Z" transform="translate(0 2.25)"/></g></g></svg>