<svg xmlns="http://www.w3.org/2000/svg" width="68" height="68" viewBox="0 0 68 68"><defs><style>.a{fill:#557a35;}.b{fill:#fff;}</style></defs><g transform="translate(-124 -916)"><circle class="a" cx="34" cy="34" r="34" transform="translate(124 916)"/><g transform="translate(143.861 928.018)"><path class="b" d="M25.134,251.215l-7.01-2.968a.539.539,0,0,0-.442,0,.419.419,0,0,0-.253.316l-4.1,16.609L9.157,248.563a.631.631,0,0,0-.253-.316.534.534,0,0,0-.442,0L1.515,250.9A2.2,2.2,0,0,0,0,252.92v14.336a.543.543,0,0,0,.505.505H25.956a.5.5,0,0,0,.505-.505v-14.02a1.99,1.99,0,0,0-1.326-2.021Zm0,0" transform="translate(0 -228.607)"/><path class="b" d="M143.133,242.884a1.341,1.341,0,0,0-.19-1.642,1.3,1.3,0,0,0-1.073-.442h-1.895a1.648,1.648,0,0,0-1.074.442,1.424,1.424,0,0,0-.189,1.642l.505.758a2.162,2.162,0,0,1,.316,1.389l-.316,3.284.947,2.589a.821.821,0,0,0,1.516,0l.947-2.589-.379-3.221a2.074,2.074,0,0,1,.316-1.389Zm0,0" transform="translate(-127.597 -221.792)"/><path class="b" d="M80.379,17.556a7.6,7.6,0,0,0,7.578-7.578v-2.4a7.578,7.578,0,0,0-15.157,0v2.4A7.6,7.6,0,0,0,80.379,17.556Zm0,0" transform="translate(-67.054 0)"/></g></g></svg>