<svg xmlns="http://www.w3.org/2000/svg" width="68" height="68" viewBox="0 0 68 68"><defs><style>.a{fill:#557a35;}.b{fill:#fff;}</style></defs><g transform="translate(-124 -1041)"><circle class="a" cx="34" cy="34" r="34" transform="translate(124 1041)"/><g transform="translate(63 1054)"><circle class="b" cx="3.5" cy="3.5" r="3.5" transform="translate(91)"/><path class="b" d="M108.036,467H81.248A1.248,1.248,0,0,0,80,468.248V469.5a1.248,1.248,0,0,0,1.248,1.248h26.788a1.248,1.248,0,0,0,1.248-1.248v-1.248A1.248,1.248,0,0,0,108.036,467Z" transform="translate(0 -428.149)"/><path class="b" d="M142.628,393.248A1.248,1.248,0,0,0,141.381,392H121.248A1.248,1.248,0,0,0,120,393.248v2.5h22.628Z" transform="translate(-36.672 -359.388)"/><path class="b" d="M173.5,106.417v4.938h9.151v-4.938a2.916,2.916,0,0,0,2.5-2.882v-3.161a6.232,6.232,0,0,0-2.456-4.957,6.23,6.23,0,0,1-9.231,0A6.232,6.232,0,0,0,171,100.374v3.161A2.916,2.916,0,0,0,173.5,106.417Z" transform="translate(-83.429 -87.479)"/><path class="b" d="M175.973,318.248A1.248,1.248,0,0,0,174.725,317H161.248A1.248,1.248,0,0,0,160,318.248v2.5h15.973Z" transform="translate(-73.345 -290.628)"/></g></g></svg>