<svg xmlns="http://www.w3.org/2000/svg" width="68" height="68" viewBox="0 0 68 68"><defs><style>.a{fill:#557a35;}.b{fill:#fff;}</style></defs><g transform="translate(-124 -1159)"><circle class="a" cx="34" cy="34" r="34" transform="translate(124 1159)"/><g transform="translate(138 1174)"><circle class="b" cx="4.5" cy="4.5" r="4.5" transform="translate(4)"/><path class="b" d="M20.234,36.084v13.8H16.621v-2.6a6.871,6.871,0,0,0-3.576-6.024,6.493,6.493,0,0,1-9.469,0A6.871,6.871,0,0,0,0,47.285v5.781A2.532,2.532,0,0,0,2.529,55.6h.361V66.941A2.532,2.532,0,0,0,5.42,69.471H7.227V56.68a1.084,1.084,0,0,1,2.168,0V69.471H11.2a2.532,2.532,0,0,0,2.529-2.529V55.6h.361a2.532,2.532,0,0,0,2.529-2.529V52.055h3.613v13.8a1.084,1.084,0,0,0,1.084,1.084h3.975V64.773H22.4V57.017h2.891V54.849H22.4V47.092h2.891V44.924H22.4V37.168h2.891V35H21.318A1.084,1.084,0,0,0,20.234,36.084Z" transform="translate(0 -32.471)"/><path class="b" d="M388.455,412h-7.371A1.084,1.084,0,0,0,380,413.084v5.059a1.084,1.084,0,0,0,1.084,1.084h7.371a1.084,1.084,0,0,0,1.084-1.084v-5.059A1.084,1.084,0,0,0,388.455,412Z" transform="translate(-352.539 -382.227)"/><path class="b" d="M388.455,0h-7.371A1.084,1.084,0,0,0,380,1.084V6.143a1.084,1.084,0,0,0,1.084,1.084h7.371a1.084,1.084,0,0,0,1.084-1.084V1.084A1.084,1.084,0,0,0,388.455,0Z" transform="translate(-352.539)"/><path class="b" d="M388.455,137.333h-7.371A1.084,1.084,0,0,0,380,138.417v5.059a1.084,1.084,0,0,0,1.084,1.084h7.371a1.084,1.084,0,0,0,1.084-1.084v-5.059A1.084,1.084,0,0,0,388.455,137.333Z" transform="translate(-352.539 -127.409)"/><path class="b" d="M388.455,274.667h-7.371A1.084,1.084,0,0,0,380,275.751v5.059a1.084,1.084,0,0,0,1.084,1.084h7.371a1.084,1.084,0,0,0,1.084-1.084v-5.059A1.084,1.084,0,0,0,388.455,274.667Z" transform="translate(-352.539 -254.818)"/></g></g></svg>