<svg xmlns="http://www.w3.org/2000/svg" width="68" height="68" viewBox="0 0 68 68"><defs><style>.a{fill:#557a35;}.b{fill:#fff;}</style></defs><g transform="translate(-124 -1366)"><circle class="a" cx="34" cy="34" r="34" transform="translate(124 1366)"/><g transform="translate(137.918 1344.532)"><path class="b" d="M37.614,48.9,19.556,42.532a1.123,1.123,0,0,0-.748,0L.75,48.9a1.124,1.124,0,0,0,0,2.119l18.058,6.42a1.123,1.123,0,0,0,.753,0l18.058-6.42a1.124,1.124,0,0,0,0-2.119Z"/><path class="b" d="M434.229,207.538v-9.8l-2.248.8v9a2.257,2.257,0,0,0,0,3.914v5.524a1.124,1.124,0,1,0,2.248,0v-5.523a2.257,2.257,0,0,0,0-3.915Z" transform="translate(-398.565 -143.632)"/><path class="b" d="M116.725,226.216a3.363,3.363,0,0,1-1.129-.195l-10.152-3.609v4.946c0,1.21,1.262,2.233,3.752,3.041a26.5,26.5,0,0,0,15.058,0c2.49-.808,3.752-1.831,3.752-3.041v-4.946l-10.152,3.609A3.364,3.364,0,0,1,116.725,226.216Z" transform="translate(-97.543 -166.461)"/></g></g></svg>