<svg xmlns="http://www.w3.org/2000/svg" width="68" height="68" viewBox="0 0 68 68"><defs><style>.a{fill:#557a35;}.b{fill:#fff;}</style></defs><g transform="translate(-124 -1534)"><circle class="a" cx="34" cy="34" r="34" transform="translate(124 1534)"/><g transform="translate(139.995 1550.75)"><g transform="translate(5.516)"><path class="b" d="M92.121,0A12.129,12.129,0,1,0,104.25,12.129,12.142,12.142,0,0,0,92.121,0ZM98.5,10.413l-2.1,2.624.229,3.429a1.1,1.1,0,0,1-.463.973,1.111,1.111,0,0,1-.64.2,1.08,1.08,0,0,1-.43-.088L92.121,16.29l-2.975,1.264a1.1,1.1,0,0,1-1.533-1.087l.229-3.429-2.1-2.624a1.1,1.1,0,0,1,.582-1.755l3.127-.818,1.716-2.889a1.144,1.144,0,0,1,1.894,0L94.783,7.84l3.129.818a1.1,1.1,0,0,1,.584,1.755Z" transform="translate(-79.992)"/></g><g transform="translate(0.004 19.281)"><g transform="translate(0)"><path class="b" d="M5.241,279.776l-5.09,8.837a1.1,1.1,0,0,0,1.242,1.616l6.475-1.74,1.722,6.475a1.106,1.106,0,0,0,.92.809c.049,0,.1.007.146.007a1.1,1.1,0,0,0,.955-.551l4.814-8.332A14.339,14.339,0,0,1,5.241,279.776Z" transform="translate(-0.004 -279.776)"/></g></g><g transform="translate(18.867 19.281)"><path class="b" d="M289.995,288.613l-5.092-8.837A14.335,14.335,0,0,1,273.72,286.9l4.814,8.332a1.1,1.1,0,0,0,.955.551,1.046,1.046,0,0,0,.143-.009,1.109,1.109,0,0,0,.922-.809l1.722-6.475,6.475,1.74a1.1,1.1,0,0,0,1.244-1.614Z" transform="translate(-273.72 -279.776)"/></g></g></g></svg>