<svg xmlns="http://www.w3.org/2000/svg" width="16.032" height="16.064" viewBox="0 0 16.032 16.064"><g transform="translate(-1.4 -1.389)"><g transform="translate(1.5 1.489)"><path d="M9.416,1.489a7.915,7.915,0,1,0,1.923,15.593,4.54,4.54,0,0,0,5.754-5.755,7.842,7.842,0,0,0,.239-1.923A7.927,7.927,0,0,0,9.416,1.489Zm6.735,8.233h.537c-.009.214-.024.428-.052.638A4.849,4.849,0,0,0,16.151,9.722ZM12.788,8.234a4.5,4.5,0,0,0-2.651.855h-.4V6.382a20.519,20.519,0,0,0,2.787-.231,13.121,13.121,0,0,1,.334,2.083h-.065ZM3.688,13.9a19.337,19.337,0,0,1,2.16-.521,7.67,7.67,0,0,0,1.657,3.052A7.323,7.323,0,0,1,3.688,13.9ZM2.141,9.722H5.31a14.364,14.364,0,0,0,.38,3.042,20,20,0,0,0-2.388.594A7.212,7.212,0,0,1,2.141,9.722ZM3.3,5.453a20.263,20.263,0,0,0,2.373.59A14.421,14.421,0,0,0,5.3,9.089H2.141A7.234,7.234,0,0,1,3.3,5.453Zm4.18-3.066A7.214,7.214,0,0,0,5.84,5.43a19.466,19.466,0,0,1-2.15-.517A7.265,7.265,0,0,1,7.484,2.388Zm7.658,2.526a19.468,19.468,0,0,1-2.163.519,7.278,7.278,0,0,0-1.663-3.053A7.257,7.257,0,0,1,15.142,4.913ZM9.1,2.156v3.59a20.052,20.052,0,0,1-2.615-.21C7.055,3.681,8.014,2.371,9.1,2.156Zm0,4.227V9.089H5.937a13.6,13.6,0,0,1,.377-2.937A20.522,20.522,0,0,0,9.1,6.382Zm.633-4.228c1.081.215,2.045,1.517,2.617,3.381a20.052,20.052,0,0,1-2.617.21Zm.454,14.352a1.826,1.826,0,0,1-.454.166v-.522A5.019,5.019,0,0,0,10.187,16.506ZM8.252,13.088A4.542,4.542,0,0,0,9.1,15.446v1.228c-1.159-.246-2.127-1.821-2.621-3.4C7.07,13.19,7.663,13.122,8.252,13.088Zm0-.632c-.645.036-1.295.1-1.941.2a13.688,13.688,0,0,1-.372-2.936H9.1v.4A4.493,4.493,0,0,0,8.256,12.456Zm5.233-4.167a13.768,13.768,0,0,0-.344-2.244,20.246,20.246,0,0,0,2.384-.592,7.234,7.234,0,0,1,1.163,3.636H15.437A4.5,4.5,0,0,0,13.489,8.289Zm-.7,8.4A3.912,3.912,0,1,1,16.7,12.778,3.926,3.926,0,0,1,12.787,16.692Z" transform="translate(-1.5 -1.489)" fill="#0056b3" stroke="#0056b3" stroke-width="0.2"/><path d="M33,31.458a1.071,1.071,0,0,0-1.272-.187l-.377-.377a1.07,1.07,0,0,0-.187-1.272l-.7-.7a1.084,1.084,0,1,0-1.532,1.532l.7.7a1.063,1.063,0,0,0,1.271.187l.378.378a1.069,1.069,0,0,0,.187,1.271l.7.7A1.084,1.084,0,0,0,33.7,32.159Zm-2.6-.619a.457.457,0,0,1-.318-.133l-.7-.7a.45.45,0,1,1,.637-.637l.7.7a.447.447,0,0,1,.132.318s0,0,0,.007a.313.313,0,0,0-.442.443Zm2.855,2.4a.451.451,0,0,1-.637,0l-.7-.7a.447.447,0,0,1-.132-.319s0,0,0-.006a.313.313,0,0,0,.441-.444h0a.457.457,0,0,1,.321.133l.7.7A.451.451,0,0,1,33.252,33.244Z" transform="translate(-20.027 -20.018)" fill="#0056b3" stroke="#0056b3" stroke-width="0.2"/></g></g></svg>