<svg xmlns="http://www.w3.org/2000/svg" width="55" height="55" viewBox="0 0 55 55"><defs><style>.a{fill:#557a35;}.b{fill:#fff;}</style></defs><g transform="translate(0 0.392)"><circle class="a" cx="27.5" cy="27.5" r="27.5" transform="translate(0 -0.392)"/><g transform="translate(13.251 8.301)"><path class="b" d="M95.386,19.234v-.017h0a19.759,19.759,0,0,1,8.761-11.75,11.683,11.683,0,0,0-5.485-.14,7.906,7.906,0,0,0-4,2.194A55.42,55.42,0,0,0,92.353,0a41.5,41.5,0,0,0-2.331,9.5,7.911,7.911,0,0,0-3.978-2.17,11.683,11.683,0,0,0-5.485.14A19.759,19.759,0,0,1,89.32,19.218v.017A1.018,1.018,0,0,1,88.3,20.251h8.1A1.018,1.018,0,0,1,95.386,19.234Z" transform="translate(-78.177 0)"/><path class="b" d="M196.767,452.767V455.8h6.066v-3.033a1.018,1.018,0,0,1,1.017-1.017h-8.1A1.018,1.018,0,0,1,196.767,452.767Z" transform="translate(-185.624 -421.382)"/><path class="b" d="M203.85,331.25h-8.1a1.018,1.018,0,0,1,1.017,1.017v4.05a1.018,1.018,0,0,1-1.017,1.017h8.1a1.018,1.018,0,0,1-1.017-1.017v-4.05A1.019,1.019,0,0,1,203.85,331.25Z" transform="translate(-185.624 -308.982)"/><path class="b" d="M466.875,361.5h0Z" transform="translate(-438.523 -337.199)"/><path class="b" d="M354.476,391.492h-8.1a1.018,1.018,0,0,1,1.016,1.016v4.05a1.018,1.018,0,0,1-1.015,1.017h0v2.017h8.1v-2.017h0a1.018,1.018,0,0,1-1.016-1.017v-4.05a1.018,1.018,0,0,1,1.017-1.016Z" transform="translate(-326.123 -365.173)"/><path class="b" d="M350.447,263.074l-3.033-1.564v5.7a1.018,1.018,0,0,1-1.015,1.017h8.1a1.019,1.019,0,0,1-1.016-1.017v-2.576Z" transform="translate(-326.146 -243.93)"/><path class="b" d="M52.2,297.662v-2.649L49.171,293.5l-3.034-1.517v5.682a1.018,1.018,0,0,1-1.017,1.016h8.1A1.017,1.017,0,0,1,52.2,297.662Z" transform="translate(-45.12 -272.352)"/><path class="b" d="M46.229,422.642V427.7H52.3v-5.059a1.018,1.018,0,0,1,1.01-1.017H45.219A1.018,1.018,0,0,1,46.229,422.642Z" transform="translate(-45.212 -393.282)"/><path class="b" d="M45.12,421.614h0Z" transform="translate(-45.12 -393.271)"/></g></g></svg>