<svg xmlns="http://www.w3.org/2000/svg" width="55" height="55" viewBox="0 0 55 55"><defs><style>.a{fill:#557a35;}.b{fill:#fff;}</style></defs><g transform="translate(0 -0.065)"><circle class="a" cx="27.5" cy="27.5" r="27.5" transform="translate(0 0.065)"/><g transform="translate(12.548 12.978)"><g transform="translate(0 0)"><g transform="translate(0 0)"><path class="b" d="M14.21,5.942a7.187,7.187,0,0,0-3.788-4.616A8.835,8.835,0,0,0,2.661.565,5.515,5.515,0,0,0,.31,2.307L0,2.713l.259.44a11.643,11.643,0,0,0,1.505,2.08A12.376,12.376,0,0,0,11.978,9.764a2.894,2.894,0,0,0-.22-.389A11.425,11.425,0,0,0,6.279,4.945l.643-1.573a13.077,13.077,0,0,1,6.257,5.09l.3.507a4.048,4.048,0,0,0,.727-3.027Z" transform="translate(0 0)"/></g><g transform="translate(14.597 0.003)"><path class="b" d="M272.975,2.356c-1.888-2.266-5.861-3.34-10.186-.964a7.144,7.144,0,0,0-3.771,4.6,4.049,4.049,0,0,0,.727,3.027l.3-.507a13.078,13.078,0,0,1,6.257-5.09l.643,1.573a11.367,11.367,0,0,0-5.462,4.414c-.085.135-.169.271-.237.406a12.376,12.376,0,0,0,10.214-4.532,14.278,14.278,0,0,0,1.561-2.08l.2-.44Z" transform="translate(-258.965 -0.052)"/></g></g><g transform="translate(0 18.658)"><path class="b" d="M28.86,341.2H0v-.9a5.958,5.958,0,0,1,7.9-5.578,7.581,7.581,0,0,1,13.051,0,5.958,5.958,0,0,1,7.9,5.578Z" transform="translate(0 -331)"/></g><path class="b" d="M217.4,159.917a13.317,13.317,0,0,0-1.606,6.494v.693a7.079,7.079,0,0,0-1.691,0v-.693a13.221,13.221,0,0,0-1.606-6.494,9.42,9.42,0,0,0,1.505-.795,12.4,12.4,0,0,1,.947,2.1,11.821,11.821,0,0,1,.947-2.1A9.42,9.42,0,0,0,217.4,159.917Z" transform="translate(-200.522 -150.153)"/></g></g></svg>