<svg xmlns="http://www.w3.org/2000/svg" width="55" height="55" viewBox="0 0 55 55"><defs><style>.a{fill:#557a35;}.b{fill:#fff;}</style></defs><g transform="translate(0 -0.048)"><circle class="a" cx="27.5" cy="27.5" r="27.5" transform="translate(0 0.048)"/><g transform="translate(13.251 12.628)"><g transform="translate(0 0)"><path class="b" d="M63.61,19.917l-3.6-2.337a5.039,5.039,0,0,0-.312-4.041L62.65,10.9a4.206,4.206,0,1,0-1.575-1.762l-2.956,2.641a5.033,5.033,0,0,0-4.772-.512L49.938,6.574a4.093,4.093,0,1,0-1.911,1.39l3.41,4.692a5.025,5.025,0,0,0,.273,6.81c.036.036.073.069.11.1l-3.3,5.8a4.209,4.209,0,1,0,2.053,1.171l3.3-5.8a5.023,5.023,0,0,0,4.846-1.181L62.325,21.9a3.333,3.333,0,1,0,1.285-1.983Zm-17.616,8.61c-.08.091-.155.176-.229.25a.953.953,0,0,1-.374.252.537.537,0,0,1-.55-.146c-.4-.4-.248-1.162.357-1.767s1.365-.759,1.767-.357a.536.536,0,0,1,.146.55.949.949,0,0,1-.252.374c-.074.074-.16.149-.25.229s-.213.188-.32.294S46.086,28.423,45.993,28.527ZM62.528,4.981c.605-.605,1.365-.759,1.767-.357a.536.536,0,0,1,.146.55.951.951,0,0,1-.252.374c-.074.074-.159.149-.25.229s-.213.188-.32.294-.2.216-.295.321-.155.177-.229.25a.953.953,0,0,1-.374.252.536.536,0,0,1-.55-.146C61.769,6.346,61.922,5.586,62.528,4.981ZM45.168,3.186c-.078.088-.151.172-.223.244a.93.93,0,0,1-.364.246.523.523,0,0,1-.536-.142c-.391-.391-.241-1.131.348-1.72s1.329-.739,1.72-.348A.522.522,0,0,1,46.256,2a.927.927,0,0,1-.246.364c-.072.072-.155.145-.244.223s-.208.183-.312.287S45.258,3.084,45.168,3.186Zm7.293,9.925c.723-.723,1.631-.907,2.111-.427a.641.641,0,0,1,.175.657,1.141,1.141,0,0,1-.3.447c-.088.088-.191.178-.3.273-.125.11-.255.224-.383.352s-.242.257-.352.383c-.1.108-.186.211-.274.3a1.135,1.135,0,0,1-.447.3.641.641,0,0,1-.657-.175C51.554,14.742,51.738,13.835,52.461,13.111Zm11.712,8.951a.757.757,0,0,1-.3.2.425.425,0,0,1-.436-.116c-.318-.318-.2-.92.283-1.4s1.082-.6,1.4-.283a.425.425,0,0,1,.116.436.753.753,0,0,1-.2.3c-.058.058-.126.118-.2.181s-.169.149-.254.233-.161.171-.233.254S64.232,22,64.174,22.063Z" transform="translate(-42.58 0)"/></g></g></g></svg>