<svg xmlns="http://www.w3.org/2000/svg" width="55" height="54" viewBox="0 0 55 54"><defs><style>.a{fill:#557a35;}.b{fill:#fff;}</style></defs><g transform="translate(0 0.087)"><ellipse class="a" cx="27.5" cy="27" rx="27.5" ry="27" transform="translate(0 -0.087)"/><g transform="translate(11.594 10.727)"><path class="b" d="M27.647,6.123A8.441,8.441,0,0,0,29.783.94L29.814,0l-.94.031a8.45,8.45,0,0,0-5.185,2.136,8.26,8.26,0,0,0-2.111,4.841L20.469,8.113a6.089,6.089,0,0,0,.064-.869,8.443,8.443,0,0,0-2.156-5.175l-.643-.686-.643.686a8.443,8.443,0,0,0-2.156,5.175,8.092,8.092,0,0,0,1.733,4.663l-1.214,1.212a6.11,6.11,0,0,0,.059-.835,8.443,8.443,0,0,0-2.156-5.175l-.643-.686-.643.686a8.443,8.443,0,0,0-2.156,5.175,8.082,8.082,0,0,0,1.721,4.646l-1.264,1.262a6.068,6.068,0,0,0,.058-.827A8.443,8.443,0,0,0,8.275,12.19L7.632,11.5l-.643.686a8.443,8.443,0,0,0-2.156,5.175,8.081,8.081,0,0,0,1.718,4.642L0,28.547l1.245,1.246,6.688-6.676a8.731,8.731,0,0,0,3.515,1.623,9.209,9.209,0,0,1,.435-5.441l-.144.019.232-.232a9.261,9.261,0,0,1,4.839-4.83h0l1.212-1.21a9.76,9.76,0,0,0,.9.592,9.2,9.2,0,0,1,5.558.814A9.161,9.161,0,0,0,27.8,12.578l.687-.643-.687-.643a8.447,8.447,0,0,0-5.177-2.155,6.063,6.063,0,0,0-.733.046l.956-.954a8.243,8.243,0,0,0,4.8-2.106Zm0,0" transform="translate(0 0)"/><path class="b" d="M327.031,362.832a1.421,1.421,0,1,0,1.421,1.421A1.423,1.423,0,0,0,327.031,362.832Zm0,0" transform="translate(-306.497 -341.535)"/><path class="b" d="M230.4,262.074a7.335,7.335,0,1,0,7.338,7.335A7.345,7.345,0,0,0,230.4,262.074Zm3.575,5.11-.687.686a3.172,3.172,0,0,1,.273.658h.971v1.761h-.971a3.17,3.17,0,0,1-.273.658l.687.686-1.246,1.246-.687-.686a3.171,3.171,0,0,1-.658.273v.97h-1.762v-.97a3.159,3.159,0,0,1-.658-.273l-.687.686-1.246-1.246.687-.686a3.158,3.158,0,0,1-.273-.658h-.971v-1.761h.971a3.161,3.161,0,0,1,.273-.658l-.687-.686,1.246-1.245.687.686a3.165,3.165,0,0,1,.658-.273v-.97h1.762v.97a3.177,3.177,0,0,1,.658.273l.687-.686Zm0,0" transform="translate(-209.969 -246.691)"/></g></g></svg>