<svg xmlns="http://www.w3.org/2000/svg" width="55" height="55" viewBox="0 0 55 55"><defs><style>.a{fill:#557a35;}.b{fill:#fff;}</style></defs><circle class="a" cx="27.5" cy="27.5" r="27.5"/><g transform="translate(8.282 8.282)"><path class="b" d="M95.386,19.234v-.017h0a19.759,19.759,0,0,1,8.761-11.75,11.683,11.683,0,0,0-5.485-.14,7.906,7.906,0,0,0-4,2.194A55.42,55.42,0,0,0,92.353,0a41.5,41.5,0,0,0-2.331,9.5,7.911,7.911,0,0,0-3.978-2.17,11.683,11.683,0,0,0-5.485.14A19.759,19.759,0,0,1,89.32,19.218v.017A1.018,1.018,0,0,1,88.3,20.251h8.1A1.018,1.018,0,0,1,95.386,19.234Z" transform="translate(-78.177 0)"/><path class="b" d="M196.767,452.767V455.8h6.066v-3.033a1.018,1.018,0,0,1,1.017-1.017h-8.1A1.018,1.018,0,0,1,196.767,452.767Z" transform="translate(-185.624 -421.382)"/><path class="b" d="M203.85,331.25h-8.1a1.018,1.018,0,0,1,1.017,1.017v4.05a1.018,1.018,0,0,1-1.017,1.017h8.1a1.018,1.018,0,0,1-1.017-1.017v-4.05A1.019,1.019,0,0,1,203.85,331.25Z" transform="translate(-185.624 -308.982)"/><path class="b" d="M466.875,361.5h0Z" transform="translate(-438.523 -337.199)"/><path class="b" d="M45.12,421.614h0Z" transform="translate(-45.12 -393.271)"/></g><g transform="translate(29.814 26.501)"><g transform="translate(0 0)"><path class="b" d="M155.577,5.083h-1.441a5.947,5.947,0,0,0-.481-.835L154.375,3a.857.857,0,0,0-.314-1.171L151.091.115a.857.857,0,0,0-1.171.314L149.2,1.674a5.653,5.653,0,0,0-.966,0L147.515.429a.857.857,0,0,0-1.171-.314l-2.97,1.715A.857.857,0,0,0,143.06,3l.72,1.247a5.949,5.949,0,0,0-.481.835h-1.441a.857.857,0,0,0-.857.857v3.43a.857.857,0,0,0,.857.857H143.3a5.952,5.952,0,0,0,.481.835l-.72,1.247a.857.857,0,0,0,.314,1.171l2.97,1.715a.857.857,0,0,0,1.171-.314l.719-1.245a5.625,5.625,0,0,0,.966,0l.719,1.245a.858.858,0,0,0,1.171.314l2.97-1.715a.857.857,0,0,0,.314-1.171l-.72-1.247a5.947,5.947,0,0,0,.481-.835h1.441a.857.857,0,0,0,.857-.857V5.941a.858.858,0,0,0-.858-.857Zm-6.86,5.089a2.516,2.516,0,1,1,2.516-2.516A2.519,2.519,0,0,1,148.717,10.172Z" transform="translate(-141 0)"/></g></g></svg>