<svg xmlns="http://www.w3.org/2000/svg" width="55" height="55" viewBox="0 0 55 55"><defs><style>.a{fill:#f58220;}.b{fill:#fff;}</style></defs><g transform="translate(-758 -746)"><g transform="translate(758 745.952)"><circle class="a" cx="27.5" cy="27.5" r="27.5" transform="translate(0 0.048)"/></g><g transform="translate(773 762.846)"><path class="b" d="M241,236.215v3.114a.687.687,0,1,0,1.374,0v-3.114c-.227.015-.456.024-.687.024S241.227,236.23,241,236.215Z" transform="translate(-229.96 -225.394)"/><path class="b" d="M73.05,9.47A8.793,8.793,0,0,0,81.833.687.688.688,0,0,0,81.145,0a8.8,8.8,0,0,0-8.1,5.377A8.8,8.8,0,0,0,64.954,0a.687.687,0,0,0-.687.687A8.793,8.793,0,0,0,73.05,9.47Z" transform="translate(-61.323)"/><path class="b" d="M7.652,167.346a1.586,1.586,0,0,0-2.251,0,1.561,1.561,0,0,0,.021,2.186l1.639,1.639a.687.687,0,0,1-.972.972L3.145,169.2a.687.687,0,0,1-.2-.486V162.93a2.258,2.258,0,0,0-2.256-2.264h0a.687.687,0,0,0-.687.687v8.832a.687.687,0,0,0,.2.486l4.215,4.215v1.187a.687.687,0,0,0,.687.687h5.152a.687.687,0,0,0,.687-.687v-3.932a3.632,3.632,0,0,0-1.064-2.568Z" transform="translate(0 -153.306)"/><path class="b" d="M283.388,160.667h0a2.258,2.258,0,0,0-2.256,2.264v5.783a.687.687,0,0,1-.2.486l-2.944,2.944a.687.687,0,1,1-.972-.972l1.639-1.639a1.561,1.561,0,0,0,.021-2.186,1.586,1.586,0,0,0-2.251,0l-2.227,2.227a3.631,3.631,0,0,0-1.064,2.568v3.932a.687.687,0,0,0,.687.687h5.152a.687.687,0,0,0,.687-.687v-1.187l4.215-4.215a.687.687,0,0,0,.2-.486v-8.832A.687.687,0,0,0,283.388,160.667Z" transform="translate(-260.621 -153.307)"/></g></g></svg>