<svg xmlns="http://www.w3.org/2000/svg" width="55" height="55" viewBox="0 0 55 55"><defs><style>.a{fill:#f58220;}.b{fill:#fff;}</style></defs><g transform="translate(-758 -746)"><g transform="translate(758 745.952)"><circle class="a" cx="27.5" cy="27.5" r="27.5" transform="translate(0 0.048)"/></g><g transform="translate(763 754.5)"><path class="b" d="M31.729,15h-4.2a.525.525,0,0,0-.525.525V17.1h5.254V15.525A.525.525,0,0,0,31.729,15Z" transform="translate(-7.119 -6.169)"/><path class="b" d="M32.76,52.053l-3.182-4.667a2.516,2.516,0,0,0-.238.154l-.42.315a3.678,3.678,0,0,1-4.414,0l-.42-.315a2.7,2.7,0,0,0-3.153,0l-.42.315a3.778,3.778,0,0,1-4.414,0l-.42-.315a2.632,2.632,0,0,0-.238-.154l-3.182,4.667a1.483,1.483,0,0,0,1.225,2.318H31.535a1.483,1.483,0,0,0,1.225-2.318Zm-15.505-.835H16.2V50.168h1.051Zm1.576,2.1H17.78V52.269h1.051Zm4.2-3.153H21.983V49.117h1.051Zm6.305,2.627H28.288V51.744h1.051Z" transform="translate(0 -21.371)"/><path class="b" d="M19.949,37.193l.42.315a2.7,2.7,0,0,0,3.153,0l.42-.315a3.778,3.778,0,0,1,4.414,0l.42.315a2.7,2.7,0,0,0,3.153,0l.42-.315c.088-.066.183-.122.277-.181l-2.663-3.906a6.8,6.8,0,0,1-1.186-3.847V27h-2.1v2.627H25.624V27h-2.1v2.259a6.8,6.8,0,0,1-1.187,3.848l-2.663,3.906c.094.057.189.113.277.18ZM25.1,32.254a1.576,1.576,0,1,1-1.576,1.576A1.576,1.576,0,0,1,25.1,32.254Z" transform="translate(-3.641 -11.864)"/><circle class="b" cx="0.5" cy="0.5" r="0.5" transform="translate(21 21)"/><path class="b" d="M23,22.051A1.051,1.051,0,0,0,24.051,23.1h7.356a1.051,1.051,0,0,0,0-2.1H24.051A1.051,1.051,0,0,0,23,22.051Z" transform="translate(-5.22 -9.017)"/><circle class="b" cx="1.5" cy="1.5" r="1.5" transform="translate(28 16)"/><circle class="b" cx="1.5" cy="1.5" r="1.5" transform="translate(14 7)"/><path class="b" d="M25.153,5.153h1.576V7.78H27.78V5.153h1.576A3.153,3.153,0,0,0,32.508,2h-2.1a3.153,3.153,0,0,0-3.15,3.1h0A3.153,3.153,0,0,0,24.1,2H22a3.153,3.153,0,0,0,3.153,3.153Z" transform="translate(-4.746 0)"/></g></g></svg>