<svg xmlns="http://www.w3.org/2000/svg" width="55" height="55" viewBox="0 0 55 55"><defs><style>.a{fill:#603312;}.b{fill:#fff;}</style></defs><g transform="translate(0 0.392)"><circle class="a" cx="27.5" cy="27.5" r="27.5" transform="translate(0 -0.392)"/><g transform="translate(-7.757 13.608)"><path class="b" d="M262.243,105v1.628h2.442v5.749a4.2,4.2,0,0,1,.522.625,9.751,9.751,0,0,1-.15,11.869,3.665,3.665,0,0,0,3.316,2.1h-.012a3.652,3.652,0,0,0,3.65-3.662v-6.918h-2.442v-1.628h2.442v-1.628H267.94v-1.628h4.069v-1.628h-2.442v-1.628h2.442v-1.628h2.442V105Z" transform="translate(-226.492 -99.303)"/><path class="b" d="M34.6,18.053c3.007,2.114,7.183,0,7.291-.054l.2-.113a8.115,8.115,0,0,0-5.543-6.119V1.628h2.442V0H29.218V1.628H31.66V11.767a8.188,8.188,0,0,0-5.484,5.965c1.444-.608,5.3-1.869,8.42.322Z" transform="translate(-3.233)"/><path class="b" d="M30.426,340.921c-2.961-2.082-7.056-.065-7.284.05l-.385.219a8.138,8.138,0,0,0,16.275-.034c-1.254.559-5.333,2.066-8.606-.235Z" transform="translate(0 -321.536)"/><path class="b" d="M322.243,15h1.628v1.628h-1.628Z" transform="translate(-283.237 -14.186)"/><path class="b" d="M397.243,45h1.628v1.628h-1.628Z" transform="translate(-354.167 -42.558)"/></g></g></svg>