<svg xmlns="http://www.w3.org/2000/svg" width="55" height="55" viewBox="0 0 55 55"><defs><style>.a{fill:#603312;}.b{fill:#fff;}</style></defs><g transform="translate(0 0.392)"><circle class="a" cx="27.5" cy="27.5" r="27.5" transform="translate(0 -0.392)"/><g transform="translate(15 13.519)"><g transform="translate(0 0.089)"><g transform="translate(0 0)"><path class="b" d="M27.263,283.785c-.81-1.149-1.621-1.176-3.677-.094l-3.951,2.415a4.056,4.056,0,0,1-1.347.331,2.7,2.7,0,0,0-1.187.48.268.268,0,0,1-.15.051H12.5c-1.375,0-1.375.69-1.375.916a.458.458,0,1,1-.916,0c0-1.148.856-1.833,2.291-1.833h3.758a.427.427,0,0,0,.405-.575A2.67,2.67,0,0,0,16.4,285a3.934,3.934,0,0,0-3.292-1.71H11.325a4.376,4.376,0,0,1-2.625-.844c-1.644-1.24-4.23.1-5.493.9v-.961H0V294.3H3.207v-1.375H9.163a18.7,18.7,0,0,0,2.8-.212l5.939-.9a3.1,3.1,0,0,0,.63-.072,2.776,2.776,0,0,0,1.513-.756l6.945-5.408.011-.009A1.314,1.314,0,0,0,27.263,283.785Zm-24.972.209v9.389H.916V283.3H2.291Z" transform="translate(0 -266.809)"/><path class="b" d="M145.525,48.714a5.5,5.5,0,0,0,5.5-5.5.458.458,0,0,0-.458-.458,5.5,5.5,0,0,0-5.5,5.5A.458.458,0,0,0,145.525,48.714Z" transform="translate(-137.278 -40.467)"/><path class="b" d="M188.026,179.619a.458.458,0,0,0-.269.59,5.485,5.485,0,0,0,7.077,3.22.458.458,0,0,0,.269-.59,5.495,5.495,0,0,0-7.077-3.22Z" transform="translate(-177.649 -169.646)"/><path class="b" d="M289.657,7.8a.456.456,0,0,0,.21-.051A5.5,5.5,0,0,0,292.22.337a.458.458,0,0,0-.618-.2,5.5,5.5,0,0,0-2.353,7.411A.458.458,0,0,0,289.657,7.8Z" transform="translate(-273.137 -0.089)"/></g></g></g></g></svg>