<svg xmlns="http://www.w3.org/2000/svg" width="55" height="55" viewBox="0 0 55 55"><defs><style>.a{fill:#ffcb05;}.b{fill:#557a35;}</style></defs><g transform="translate(0 -0.048)"><circle class="a" cx="27.5" cy="27.5" r="27.5" transform="translate(0 0.048)"/><g transform="translate(13 12.731)"><g transform="translate(7.825 8.312)"><path class="b" d="M133.7,130.916a.326.326,0,0,0,.425-.41c-.586-1.807-2.71-2.481-4.684-.878A8.413,8.413,0,0,1,128,130.655c.685.684,1.467,2.981,3.173,3.235,1.88.341,3.544-1.509,2.183-2.355a5.812,5.812,0,0,0-3.079-.88A5.829,5.829,0,0,1,133.7,130.916Z" transform="translate(-128.003 -128.724)"/></g><g transform="translate(13.166 0.472)"><g transform="translate(0 0)"><path class="b" d="M224.249,9.216c-3.407-2.768-5.581,1.6-4.23,1.164a5.809,5.809,0,0,1,3.06-.137,5.862,5.862,0,0,0-4.521,2.146,37.486,37.486,0,0,1,.384-4.37,3.635,3.635,0,0,0,2.79-2.053c1.149-2.056.616-4.164.445-5.495-.9.874-4.819-.15-6.374,2.514a3.429,3.429,0,0,0,.235,3.657.439.439,0,0,0,.791-.23,4.124,4.124,0,0,1,2.564-3.807,7.9,7.9,0,0,0-1.455,3.1,31.379,31.379,0,0,0-.933,8.248.972.972,0,0,0,.982,1,.988.988,0,0,0,.893-.626,4.427,4.427,0,0,1,1.23-1.67,2.608,2.608,0,0,0,2.4.826c1.7-.253,2.492-2.555,3.173-3.235A8.379,8.379,0,0,1,224.249,9.216Z" transform="translate(-215.38 -0.472)"/></g></g><g transform="translate(0 15.102)"><path class="b" d="M27.044,240.682a2.579,2.579,0,0,0-2.757.1l-6.682,4.89H13.693l-.978-.978h3.593a2.139,2.139,0,0,0,2.291-1.957,2.087,2.087,0,0,0-2.291-1.957H14.961a6.68,6.68,0,0,1-2.993-.352,5.826,5.826,0,0,0-2.647-.625,5.649,5.649,0,0,0-4.054,1.66L0,246.65l5.868,5.868,1.956-2.934h9.244a4.027,4.027,0,0,0,2.674-1.016l7.368-6.545A.857.857,0,0,0,27.044,240.682Z" transform="translate(0 -239.804)"/></g></g></g></svg>