<svg xmlns="http://www.w3.org/2000/svg" width="55" height="55" viewBox="0 0 55 55"><defs><style>.a{fill:#ffcb05;}.b{fill:#557a35;}</style></defs><g transform="translate(-758 -746)"><g transform="translate(758 745.952)"><circle class="a" cx="27.5" cy="27.5" r="27.5" transform="translate(0 0.048)"/></g><g transform="translate(732 759.26)"><ellipse class="b" cx="5" cy="4.5" rx="5" ry="4.5" transform="translate(48 -0.26)"/><path class="b" d="M149,181.515a6.3,6.3,0,0,1-6.853,0,9.59,9.59,0,0,0-2.983,1.822l6.409,2.4,6.409-2.4A9.59,9.59,0,0,0,149,181.515Z" transform="translate(-92.776 -171.558)"/><path class="b" d="M412.371,310h-.549a.823.823,0,0,0-.823.823v2.194a.823.823,0,0,0,.823.823h.549a1.92,1.92,0,1,0,0-3.84Z" transform="translate(-349.703 -292.995)"/><path class="b" d="M81.354,231.75a.823.823,0,0,0-.354.676v1.832h.274a2.471,2.471,0,0,1,2.469,2.469v2.194a2.471,2.471,0,0,1-2.469,2.469H81v1.734a.823.823,0,0,0,.534.77l8.243,3.091V234.531l-7.665-2.874A.822.822,0,0,0,81.354,231.75Z" transform="translate(-37.806 -218.899)"/><path class="b" d="M277.034,238.921v-2.194a2.471,2.471,0,0,1,2.469-2.469h.274v-1.832a.823.823,0,0,0-1.112-.77L271,234.531v12.454l8.243-3.091a.823.823,0,0,0,.534-.77V241.39H279.5A2.471,2.471,0,0,1,277.034,238.921Z" transform="translate(-217.383 -218.899)"/><path class="b" d="M44.291,313.017v-2.194a.823.823,0,0,0-.823-.823H42.92a1.92,1.92,0,0,0,0,3.84h.549A.823.823,0,0,0,44.291,313.017Z" transform="translate(0 -292.995)"/></g></g></svg>