<svg xmlns="http://www.w3.org/2000/svg" width="52.268" height="52.268" viewBox="0 0 52.268 52.268"><defs><style>.a{fill:#603312;}.b{fill:#fff;}</style></defs><circle class="a" cx="6.534" cy="6.534" r="6.534" transform="translate(5.445 25.045)"/><path class="a" d="M17.967,19H5.989A5.994,5.994,0,0,0,0,24.989v3.267a1.634,1.634,0,0,0,1.633,1.633h20.69a1.634,1.634,0,0,0,1.633-1.633V24.989A5.994,5.994,0,0,0,17.967,19Z" transform="translate(0 22.379)"/><path class="a" d="M42.568,0H8.811A3.829,3.829,0,0,0,5,3.811V21.844a8.864,8.864,0,0,1,1.089-.065,9.808,9.808,0,0,1,9.735,8.711h4.421v7.078A1.633,1.633,0,0,0,21.4,39.136a1.814,1.814,0,0,0,.479.065,1.636,1.636,0,0,0,1.35-.719l5.488-7.993H42.568a3.829,3.829,0,0,0,3.811-3.811V3.811A3.829,3.829,0,0,0,42.568,0Z" transform="translate(5.889)"/><g transform="translate(23.15 5.235)"><g transform="translate(0 0)"><path class="b" d="M287.121,10.014a10.69,10.69,0,0,0-1.144,3.973,4.395,4.395,0,0,1,1.136.221l.056-.018a17.654,17.654,0,0,1,.678-3.836.515.515,0,0,1,.5-.333,5.73,5.73,0,0,0,6.215-4.735,8.439,8.439,0,0,0-.826-5.067.4.4,0,0,0-.639-.1c-.418.414-.847.82-1.3,1.192-1.366,1.122-3.189,1.587-4.6,2.681s-2.4,3.1-1.456,4.814a5.3,5.3,0,0,0,.7.9,5.346,5.346,0,0,1,1.552-1.955,20.985,20.985,0,0,0,2.924-2.868,7.966,7.966,0,0,0,1.47-2.63,10.959,10.959,0,0,1-1.551,3.485C289.809,7.317,288.149,8.434,287.121,10.014Z" transform="translate(-276.699 -0.002)"/><path class="b" d="M25.265,475.993c0-.015,0-.029,0-.044a1.761,1.761,0,0,0-1.941-1.492q-.1,0-.2.008A2.92,2.92,0,0,0,20.5,473.09a3.49,3.49,0,0,0-1.415.291l-.007,0a3.456,3.456,0,0,0-1.231-.284c-.059,0-.118,0-.177,0a3.273,3.273,0,0,0-2.056.68A3.21,3.21,0,0,0,13.9,473.3a2.549,2.549,0,0,0-2.671,1.81,1.1,1.1,0,0,0-1.086.968.761.761,0,0,0,.008.11,2.561,2.561,0,0,0-1.489,1.252H27.3A3.019,3.019,0,0,0,25.265,475.993Z" transform="translate(-8.666 -458.27)"/></g></g></svg>