<svg xmlns="http://www.w3.org/2000/svg" width="38" height="38" viewBox="0 0 38 38"><defs><style>.a{fill:#557a35;}.b{fill:#fff;}</style></defs><g transform="translate(-112 -635)"><circle class="a" cx="19" cy="19" r="19" transform="translate(112 635)"/><g transform="translate(122 643.999)"><path class="b" d="M.559,6.185H3.241V0H.559A.559.559,0,0,0,0,.559V5.626A.559.559,0,0,0,.559,6.185Z" transform="translate(0 0)"/><path class="b" d="M18.443,233.54h-.633v-5.252A2.187,2.187,0,0,0,19,226.2c0-1.183-1.309-2.023-1.458-2.115a.558.558,0,0,0-.586,0c-.149.092-1.458.932-1.458,2.115a2.187,2.187,0,0,0,1.192,2.088v5.252H13.04v-1.974a2.186,2.186,0,0,0,1.192-2.087c0-1.183-1.309-2.023-1.458-2.115a.558.558,0,0,0-.586,0c-.149.092-1.458.932-1.458,2.115a2.186,2.186,0,0,0,1.192,2.087v1.974H7.079v-1.973a2.186,2.186,0,0,0,1.192-2.087c0-1.183-1.309-2.023-1.458-2.115a.558.558,0,0,0-.586,0c-.149.092-1.458.932-1.458,2.115a2.186,2.186,0,0,0,1.192,2.087v1.973H2.31v-5.252A2.186,2.186,0,0,0,3.5,226.2c0-1.183-1.309-2.023-1.458-2.115a.558.558,0,0,0-.586,0C1.309,224.177,0,225.017,0,226.2a2.186,2.186,0,0,0,1.192,2.087v5.252H.559a.559.559,0,1,0,0,1.118H18.443a.559.559,0,0,0,0-1.118Z" transform="translate(0 -215.657)"/><path class="b" d="M121.981,10.358l4.332-.01a1.187,1.187,0,1,0,0-2.374c-3.911,0-3.555.014-3.756-.046a1.744,1.744,0,0,1-.733-.439L119.66,5.323a.559.559,0,0,1,.791-.79s1.894,1.9,1.9,1.9a1.2,1.2,0,0,0,1.681-1.689C119.574.311,119.881.612,119.764.515A2.221,2.221,0,0,0,118.338,0H117V6.321l3.842,3.586a1.67,1.67,0,0,0,1.14.451Z" transform="translate(-112.641)"/><path class="b" d="M360.549,105.108a.559.559,0,1,1,.559-.559A.559.559,0,0,1,360.549,105.108Zm.559-.559h0Zm-.559,0h0Z" transform="translate(-346.577 -100.116)"/><path class="b" d="M416.549,161.108a.559.559,0,1,1,.559-.559A.559.559,0,0,1,416.549,161.108Zm.559-.559h0Zm-.559,0h0Z" transform="translate(-400.491 -154.029)"/><path class="b" d="M440.549,89.108a.559.559,0,1,1,.559-.559A.559.559,0,0,1,440.549,89.108Zm.559-.559h0Zm-.559,0h0Z" transform="translate(-423.597 -84.712)"/></g></g></svg>