<svg xmlns="http://www.w3.org/2000/svg" width="38" height="38" viewBox="0 0 38 38"><defs><style>.a{fill:#557a35;}.b{fill:#fff;}</style></defs><g transform="translate(-84 -1039)"><g transform="translate(-28 404)"><circle class="a" cx="19" cy="19" r="19" transform="translate(112 635)"/></g><g transform="translate(50 1048.033)"><path class="b" d="M51.563,36.491V34.636A4.636,4.636,0,0,0,46.927,30a.927.927,0,0,0-.927.927v1.854a4.636,4.636,0,0,0,4.636,4.636A.927.927,0,0,0,51.563,36.491Z" transform="translate(0 -28.146)"/><path class="b" d="M114.418,187.714v-6.091a4.207,4.207,0,0,0,.8-1.622h-7.164a4.206,4.206,0,0,0,.8,1.622v6.091a4.207,4.207,0,0,0-.8,1.622h7.164A4.206,4.206,0,0,0,114.418,187.714Z" transform="translate(-58.218 -168.874)"/><path class="b" d="M123.782,6.491V8.345a2.75,2.75,0,0,1-.171.927h3.753a4.206,4.206,0,0,0-.8-1.622V.927A.927.927,0,0,0,125.636,0h-3.709A.927.927,0,0,0,121,.927v.251A6.481,6.481,0,0,1,123.782,6.491Z" transform="translate(-70.364)"/></g></g></svg>