<svg xmlns="http://www.w3.org/2000/svg" width="38" height="38" viewBox="0 0 38 38"><defs><style>.a{fill:#557a35;}.b{fill:#fff;}</style></defs><g transform="translate(-112 -635)"><circle class="a" cx="19" cy="19" r="19" transform="translate(112 635)"/><g transform="translate(121 643.503)"><path class="b" d="M1.534,2.641H4.322v.536a.536.536,0,0,0,.536.536h.536v.929a.536.536,0,0,0,0,1.072H6.466a.536.536,0,0,0,0-1.072V3.714H7a.536.536,0,0,0,.536-.536V2.641h5.218v.536a.536.536,0,0,0,.536.536h.536v.929a.536.536,0,1,0,0,1.072H14.9a.536.536,0,1,0,0-1.072V3.714h.536a.536.536,0,0,0,.536-.536V2.641h2.788a.536.536,0,0,0,0-1.072H15.974V1.033A.536.536,0,0,0,15.437.5H13.293a.536.536,0,0,0-.536.536v.536H7.538V1.033A.536.536,0,0,0,7,.5H4.858a.536.536,0,0,0-.536.536v.536H1.534a.536.536,0,1,0,0,1.072Z" transform="translate(-0.962)"/><path class="b" d="M123.993,177.038V179.4a.536.536,0,1,0,1.072,0v-2.358a.536.536,0,0,0-1.072,0Z" transform="translate(-119.561 -169.714)"/><path class="b" d="M184.991,144.812a.536.536,0,0,0,.715-.251,3.644,3.644,0,0,0,.362-1.59,3.694,3.694,0,0,0-1.171-2.692.536.536,0,0,0-.731.784,2.607,2.607,0,0,1,.574,3.034A.536.536,0,0,0,184.991,144.812Z" transform="translate(-177.419 -134.647)"/><path class="b" d="M37.894,141.062a.536.536,0,0,0-.731-.784,3.694,3.694,0,0,0-1.171,2.693,3.643,3.643,0,0,0,.362,1.59.536.536,0,1,0,.967-.464,2.607,2.607,0,0,1,.574-3.034Z" transform="translate(-34.706 -134.646)"/><path class="b" d="M360.536,176.5a.536.536,0,0,0-.536.536V179.4a.536.536,0,0,0,1.072,0v-2.358A.536.536,0,0,0,360.536,176.5Z" transform="translate(-347.133 -169.714)"/><path class="b" d="M421,144.812a.536.536,0,0,0,.715-.251,3.643,3.643,0,0,0,.362-1.59,3.694,3.694,0,0,0-1.171-2.692.536.536,0,1,0-.731.784,2.607,2.607,0,0,1,.574,3.034A.536.536,0,0,0,421,144.812Z" transform="translate(-404.992 -134.647)"/><path class="b" d="M273.9,141.062a.536.536,0,0,0-.731-.784A3.694,3.694,0,0,0,272,142.97a3.643,3.643,0,0,0,.362,1.59.536.536,0,1,0,.966-.464,2.607,2.607,0,0,1,.574-3.034Z" transform="translate(-262.277 -134.646)"/><path class="b" d="M17.8,306.778h-3.86v-1.073h.536a1.61,1.61,0,0,0,1.608-1.608v-1.072a.536.536,0,0,0-.536-.536h-.715a1.61,1.61,0,0,0-1.43.873,1.61,1.61,0,0,0-1.43-.873h-.715a.536.536,0,0,0-.536.536V304.1a1.61,1.61,0,0,0,1.608,1.608h.536v1.073H5.5v-1.073H6.04A1.61,1.61,0,0,0,7.648,304.1v-1.072a.536.536,0,0,0-.536-.536H6.4a1.61,1.61,0,0,0-1.43.873,1.61,1.61,0,0,0-1.43-.873H2.823a.536.536,0,0,0-.536.536V304.1A1.61,1.61,0,0,0,3.9,305.706h.536v1.073H.536a.536.536,0,0,0-.536.536v2.145a.536.536,0,0,0,.536.536H17.8a.536.536,0,0,0,.536-.536v-2.145a.536.536,0,0,0-.536-.536Z" transform="translate(0 -291.198)"/></g></g></svg>