<svg xmlns="http://www.w3.org/2000/svg" width="250.919" height="85.588" viewBox="0 0 250.919 85.588"><defs><style>.a{fill:#910d1a;}.b{fill:none;stroke:#373839;stroke-miterlimit:10;stroke-width:0.754px;}.c{fill:#373839;}</style></defs><g transform="translate(-99.304 -642.419)"><path class="a" d="M183.7,687.151l-2.964-8.021-.9-.1v-1.339h4.245v1.339l-.845.13,1.7,5.316.091.37h.039l.085-.351,1.644-5.335-1.014-.13v-1.339h3.965v1.339l-.923.1-2.652,8.021Z"/><path class="a" d="M199.3,687.151v-1.332l.982-.208v-6.376l-.982-.208v-1.339h4.239v1.339l-.982.208v6.376l.982.208v1.332Z"/><path class="a" d="M216.541,685.422h1.04a1.96,1.96,0,0,0,1.209-.364,2.214,2.214,0,0,0,.739-1.024,4.337,4.337,0,0,0,.25-1.537v-.156a4.316,4.316,0,0,0-.25-1.534,2.226,2.226,0,0,0-.739-1.021,1.966,1.966,0,0,0-1.209-.363h-1.04Zm-3.275,1.729v-1.332l.994-.241v-6.3l-.994-.247v-1.339H217.7a4.308,4.308,0,0,1,2.268.6,4.162,4.162,0,0,1,1.547,1.644,5.068,5.068,0,0,1,.559,2.421v.149a5.068,5.068,0,0,1-.559,2.421,4.15,4.15,0,0,1-1.547,1.642,4.343,4.343,0,0,1-2.268.591Z"/><path class="a" d="M234.469,687.151v-1.332l.982-.208v-1.579l-2.744-4.87-.987-.135v-1.339h4.095v1.339l-.585.1,1.3,2.594.149.331h.059l.155-.312,1.522-2.613-.989-.1v-1.339h4.017v1.339l-1,.135-2.717,4.687v1.762l.988.208v1.332Z"/><path class="a" d="M252.968,683.076h2.074l-.923-2.867-.1-.331h-.039l-.11.364Zm-3.678,4.075v-1.332l.663-.1,2.821-8.033h2.47l2.827,8.033.663.1v1.332H255.2v-1.332l.618-.118-.286-1.027h-3.042l-.274,1.027.618.118v1.332Z"/><path class="a" d="M271.052,687.151l-2.964-8.021-.9-.1v-1.339h4.244v1.339l-.846.13,1.7,5.316.09.37h.039l.084-.351,1.645-5.335-1.014-.13v-1.339H277.1v1.339l-.923.1-2.652,8.021Z"/><path class="a" d="M286.653,687.151v-1.332l.981-.208v-6.376l-.981-.208v-1.339h4.237v1.339l-.981.208v6.376l.981.208v1.332Z"/><path class="a" d="M300.622,687.151v-1.332l.981-.208v-6.376l-.981-.208v-1.339h4.245v1.339l-.982.208v2.391h3.445v-2.391l-.982-.208v-1.339h4.238v1.339l-.981.208v6.376l.981.208v1.332h-4.238v-1.332l.982-.208v-2.237h-3.445v2.237l.982.208v1.332Z"/><path class="a" d="M322.877,683.076h2.075l-.924-2.867-.1-.331h-.039l-.11.364Zm-3.678,4.075v-1.332l.663-.1,2.821-8.033h2.47l2.827,8.033.663.1v1.332h-3.536v-1.332l.618-.118-.286-1.027H322.4l-.274,1.027.619.118v1.332Z"/><path class="a" d="M344.256,687.151l-1.273-3.692,1.982-.675,1.151,2.814.9.227v1.326Zm-2.729-5.18h1.417a1.518,1.518,0,0,0,1.02-.309,1.114,1.114,0,0,0,.358-.894,1.318,1.318,0,0,0-.365-.972,1.4,1.4,0,0,0-1.04-.367h-1.39Zm-3.263,5.18v-1.332l.982-.208v-6.376l-.982-.208v-1.346h4.653a4.889,4.889,0,0,1,1.951.357,2.887,2.887,0,0,1,1.274,1.018,2.71,2.71,0,0,1,.448,1.562,2.833,2.833,0,0,1-.452,1.547,3.319,3.319,0,0,1-1.238,1.148,3.62,3.62,0,0,1-1.794.426l-1.579-.02v1.892l.981.208v1.332Z"/><line class="b" x2="167.174" transform="translate(179.835 696.411)"/><path class="a" d="M189.172,671.706a17.666,17.666,0,0,1-4.917-.656,14.637,14.637,0,0,1-4.42-2.185V662.92H183.3l.567,3.85a7.679,7.679,0,0,0,2.316,1.083,10.457,10.457,0,0,0,2.992.41,6.848,6.848,0,0,0,2.652-.453,3.673,3.673,0,0,0,1.643-1.271,3.3,3.3,0,0,0,.569-1.933,3.394,3.394,0,0,0-.5-1.829,4.3,4.3,0,0,0-1.651-1.429,14.676,14.676,0,0,0-3.124-1.163,22.078,22.078,0,0,1-4.836-1.846A8.039,8.039,0,0,1,181,655.783a6.648,6.648,0,0,1,.142-7.189,7.633,7.633,0,0,1,3.133-2.52,11.157,11.157,0,0,1,4.632-.941,14.683,14.683,0,0,1,5.086.746,12.15,12.15,0,0,1,3.737,2.041v5.557h-3.391l-.639-3.622a6.755,6.755,0,0,0-1.89-.879,9.238,9.238,0,0,0-2.743-.364,5.972,5.972,0,0,0-2.378.444,3.8,3.8,0,0,0-1.616,1.252,3.186,3.186,0,0,0-.586,1.925,2.867,2.867,0,0,0,.516,1.7,4.465,4.465,0,0,0,1.721,1.322,20.775,20.775,0,0,0,3.266,1.2,15.167,15.167,0,0,1,6.372,3.09,6.486,6.486,0,0,1,2.166,5.023,6.239,6.239,0,0,1-1.161,3.754,7.534,7.534,0,0,1-3.267,2.493,12.6,12.6,0,0,1-4.926.889"/><path class="a" d="M212.282,668.155a6.043,6.043,0,0,0,3.862-1.2,7.029,7.029,0,0,0,2.254-3.346,15.428,15.428,0,0,0,.737-5.005v-.427a14.979,14.979,0,0,0-.746-4.951,7.156,7.156,0,0,0-2.263-3.338,6.01,6.01,0,0,0-3.861-1.207,5.808,5.808,0,0,0-3.746,1.207,7.312,7.312,0,0,0-2.272,3.338,14.683,14.683,0,0,0-.762,4.951v.427a14.992,14.992,0,0,0,.762,5,7.2,7.2,0,0,0,2.282,3.354,5.868,5.868,0,0,0,3.753,1.2m0,3.551a10.858,10.858,0,0,1-4.649-.968,10.278,10.278,0,0,1-3.56-2.724,12.493,12.493,0,0,1-2.28-4.154,16.546,16.546,0,0,1-.8-5.254v-.391a16.482,16.482,0,0,1,.8-5.236,12.582,12.582,0,0,1,2.28-4.162,10.209,10.209,0,0,1,3.56-2.734,10.83,10.83,0,0,1,4.632-.967,11.17,11.17,0,0,1,4.739.967,10.106,10.106,0,0,1,3.569,2.734,12.46,12.46,0,0,1,2.254,4.162,16.831,16.831,0,0,1,.781,5.236v.391a16.9,16.9,0,0,1-.781,5.254,12.372,12.372,0,0,1-2.254,4.154A10.173,10.173,0,0,1,217,670.738a11.112,11.112,0,0,1-4.722.968"/><path class="a" d="M226.039,671.333V668.6l2.8-.533V648.772l-2.8-.532v-2.752h9.213l7.579,18.691h.107l7.349-18.691h9.318v2.752l-2.822.532v19.294l2.822.533v2.734h-10.1V668.6l2.964-.533V662.05l.035-11.308-.088-.017-8.006,20.022h-3.249l-8.237-19.917-.087.019.231,10.9v6.319l3.069.533v2.734Z"/><path class="a" d="M269.7,660.771H277l-3.354-9.567-.23-.692h-.108l-.248.727Zm-8.928,10.562V668.6l1.882-.265,8.555-22.846h4.349l8.45,22.846,1.881.265v2.734h-8.219V668.6l1.846-.337-1.367-4.065h-9.621l-1.4,4.065,1.863.337v2.734Z"/><path class="a" d="M288.007,671.333V668.6l2.822-.533V648.772l-2.822-.532v-2.752h10.1v2.752l-2.8.532v19.294l2.8.533v2.734Z"/><path class="a" d="M307.248,671.333V668.6l2.8-.533v-5.821l-7.775-13.652-2.344-.353v-2.752h9.727v2.752l-2.467.318,4.794,9.054.39.781.07-.035.373-.729L318,648.558l-2.93-.318v-2.752h9.532v2.752l-2.432.353-7.667,13.3v6.176l2.822.533v2.734Z"/><path class="a" d="M330.82,660.771h7.295l-3.354-9.567-.23-.692h-.108l-.248.727Zm-8.928,10.562V668.6l1.882-.265,8.555-22.846h4.349l8.45,22.846,1.88.265v2.734H338.79V668.6l1.846-.337-1.367-4.065h-9.621l-1.4,4.065,1.863.337v2.734Z"/><path class="c" d="M295.848,724.087H298.3v-.152a1.951,1.951,0,0,0-.126-.73,1.04,1.04,0,0,0-.392-.489,1.218,1.218,0,0,0-.677-.176,1.027,1.027,0,0,0-.627.2,1.4,1.4,0,0,0-.431.542,2.661,2.661,0,0,0-.219.777Zm1.406,3.92a2.968,2.968,0,0,1-1.561-.4,2.729,2.729,0,0,1-1.031-1.11,3.491,3.491,0,0,1-.367-1.624v-.245a3.659,3.659,0,0,1,.361-1.65,2.837,2.837,0,0,1,.993-1.137,2.579,2.579,0,0,1,1.441-.412,2.8,2.8,0,0,1,1.445.345,2.2,2.2,0,0,1,.882.982,3.568,3.568,0,0,1,.3,1.526v.844h-3.89l-.012.029a2.286,2.286,0,0,0,.208.884,1.453,1.453,0,0,0,.527.61,1.5,1.5,0,0,0,.835.223,2.976,2.976,0,0,0,.938-.14,2.888,2.888,0,0,0,.779-.4l.463.926a3.153,3.153,0,0,1-.955.533A3.85,3.85,0,0,1,297.254,728.007Zm-6.4,0a2.863,2.863,0,0,1-1.544-.406,2.723,2.723,0,0,1-1.008-1.125,3.7,3.7,0,0,1-.354-1.656v-.205a3.7,3.7,0,0,1,.351-1.64,2.729,2.729,0,0,1,1-1.135,2.834,2.834,0,0,1,1.544-.412,3.532,3.532,0,0,1,1.418.261,3.123,3.123,0,0,1,.99.646l.006,1.694h-1.125l-.216-1.12a1.212,1.212,0,0,0-.416-.272,1.476,1.476,0,0,0-.551-.1,1.312,1.312,0,0,0-.829.265,1.624,1.624,0,0,0-.522.729,3.028,3.028,0,0,0-.179,1.087v.205a3.054,3.054,0,0,0,.182,1.125,1.509,1.509,0,0,0,.507.692,1.247,1.247,0,0,0,.747.234,1.227,1.227,0,0,0,.829-.275,1.319,1.319,0,0,0,.419-.762h1.277l.018.034a2.666,2.666,0,0,1-.366,1.106,2.052,2.052,0,0,1-.832.758A2.953,2.953,0,0,1,290.85,728.007Zm-10.652-.122v-.9l.879-.175v-4.179l-.926-.175v-.909h2.285l.076.921a2.31,2.31,0,0,1,.788-.765,2.1,2.1,0,0,1,1.07-.272,1.949,1.949,0,0,1,1.523.6,2.736,2.736,0,0,1,.545,1.878v2.9l.879.175v.9h-3.182v-.9l.826-.175v-2.889a1.459,1.459,0,0,0-.287-1.022,1.126,1.126,0,0,0-.855-.3,1.44,1.44,0,0,0-.747.189,1.469,1.469,0,0,0-.519.531v3.493l.8.175v.9Zm-4.664-3.8h2.455v-.152a1.951,1.951,0,0,0-.126-.73,1.036,1.036,0,0,0-.393-.489,1.212,1.212,0,0,0-.676-.176,1.023,1.023,0,0,0-.627.2,1.388,1.388,0,0,0-.431.542,2.631,2.631,0,0,0-.22.777Zm1.406,3.92a2.972,2.972,0,0,1-1.562-.4,2.729,2.729,0,0,1-1.031-1.11,3.491,3.491,0,0,1-.366-1.624v-.245a3.659,3.659,0,0,1,.36-1.65,2.847,2.847,0,0,1,.994-1.137,2.577,2.577,0,0,1,1.441-.412,2.792,2.792,0,0,1,1.444.345,2.188,2.188,0,0,1,.882.982,3.568,3.568,0,0,1,.3,1.526v.844H275.51l-.011.029a2.268,2.268,0,0,0,.208.884,1.446,1.446,0,0,0,.527.61,1.5,1.5,0,0,0,.835.223,2.97,2.97,0,0,0,.937-.14,2.894,2.894,0,0,0,.78-.4l.463.926a3.165,3.165,0,0,1-.955.533A3.85,3.85,0,0,1,276.94,728.007Zm-14.32-.122v-.9l.884-.175v-4.179l-.931-.175v-.909h2.285l.07.833a2.159,2.159,0,0,1,.777-.7,2.258,2.258,0,0,1,1.081-.249,1.968,1.968,0,0,1,1.063.277,1.727,1.727,0,0,1,.671.842,2.233,2.233,0,0,1,.771-.821,2.08,2.08,0,0,1,1.122-.3,1.861,1.861,0,0,1,1.5.65,3,3,0,0,1,.547,1.969v2.76l.885.175v.9h-3.193v-.9l.832-.175V724.04a1.786,1.786,0,0,0-.27-1.125.97.97,0,0,0-.791-.321,1.083,1.083,0,0,0-.8.31,1.487,1.487,0,0,0-.408.791v3.112l.8.175v.9h-3.076v-.9l.8-.175V724.04a1.765,1.765,0,0,0-.276-1.11.967.967,0,0,0-.8-.336,1.416,1.416,0,0,0-.729.175,1.288,1.288,0,0,0-.472.5v3.54l.826.175v.9Zm-11.379,0v-.9l.885-.175v-4.179l-.932-.175v-.909h2.285l.07.833a2.159,2.159,0,0,1,.777-.7,2.257,2.257,0,0,1,1.081-.249,1.968,1.968,0,0,1,1.063.277,1.727,1.727,0,0,1,.671.842,2.233,2.233,0,0,1,.771-.821,2.08,2.08,0,0,1,1.122-.3,1.861,1.861,0,0,1,1.5.65,3,3,0,0,1,.548,1.969v2.76l.884.175v.9h-3.193v-.9l.832-.175V724.04a1.786,1.786,0,0,0-.27-1.125.97.97,0,0,0-.791-.321,1.083,1.083,0,0,0-.8.31,1.488,1.488,0,0,0-.408.791v3.112l.8.175v.9h-3.076v-.9l.8-.175V724.04a1.765,1.765,0,0,0-.276-1.11.967.967,0,0,0-.8-.336,1.416,1.416,0,0,0-.729.175,1.288,1.288,0,0,0-.472.5v3.54l.826.175v.9Zm-3.7-1.014a1.226,1.226,0,0,0,.811-.266,1.6,1.6,0,0,0,.478-.739,3.428,3.428,0,0,0,.158-1.087v-.123a3.383,3.383,0,0,0-.158-1.078,1.605,1.605,0,0,0-.481-.738,1.228,1.228,0,0,0-.82-.27,1.213,1.213,0,0,0-.809.27,1.576,1.576,0,0,0-.477.738,3.414,3.414,0,0,0-.156,1.078v.123a3.46,3.46,0,0,0,.156,1.087,1.554,1.554,0,0,0,.48.739A1.251,1.251,0,0,0,247.544,726.871Zm0,1.136a2.9,2.9,0,0,1-1.571-.41,2.685,2.685,0,0,1-1.008-1.139,3.83,3.83,0,0,1-.351-1.679v-.123a3.8,3.8,0,0,1,.351-1.67,2.735,2.735,0,0,1,1.008-1.142,2.845,2.845,0,0,1,1.559-.416,2.889,2.889,0,0,1,1.57.412,2.707,2.707,0,0,1,1.008,1.141,3.8,3.8,0,0,1,.351,1.675v.123a3.83,3.83,0,0,1-.351,1.679A2.679,2.679,0,0,1,249.1,727.6,2.872,2.872,0,0,1,247.544,728.007Zm-6.651,0a4.1,4.1,0,0,1-2.153-.536,3.505,3.505,0,0,1-1.365-1.5,5.031,5.031,0,0,1-.472-2.24v-.218a4.99,4.99,0,0,1,.469-2.211,3.638,3.638,0,0,1,1.341-1.519,3.815,3.815,0,0,1,2.086-.552,4.785,4.785,0,0,1,1.577.251,3.951,3.951,0,0,1,1.265.709v1.968h-1.125l-.152-1.318a2.191,2.191,0,0,0-.428-.24,2.5,2.5,0,0,0-.513-.152,3.187,3.187,0,0,0-.606-.052,2.225,2.225,0,0,0-1.315.386,2.4,2.4,0,0,0-.835,1.083,4.269,4.269,0,0,0-.288,1.636v.229a4.178,4.178,0,0,0,.305,1.672,2.383,2.383,0,0,0,.876,1.076,2.438,2.438,0,0,0,1.368.375,3.242,3.242,0,0,0,.765-.092,3.113,3.113,0,0,0,.665-.236l.158-1.2h1.113v1.957a4.333,4.333,0,0,1-1.2.522A5.7,5.7,0,0,1,240.893,728.007Zm-11.83-5.407.633-.428a1.057,1.057,0,0,0,.562-.978.8.8,0,0,0-.243-.572.846.846,0,0,0-.636-.25.778.778,0,0,0-.647.287,1.129,1.129,0,0,0-.226.716,1.349,1.349,0,0,0,.138.571A3.491,3.491,0,0,0,229.063,722.6Zm.158,4.271a2.4,2.4,0,0,0,.712-.109,2.677,2.677,0,0,0,.671-.313l-1.91-2.25-.164.111a1.926,1.926,0,0,0-.53.641,1.432,1.432,0,0,0-.138.583,1.274,1.274,0,0,0,1.359,1.337Zm-.052,1.136a3.29,3.29,0,0,1-1.471-.307,2.257,2.257,0,0,1-1.313-2.113,1.939,1.939,0,0,1,.372-1.183,4.813,4.813,0,0,1,1.117-1.026.572.572,0,0,0,.052-.034.227.227,0,0,1,.047-.03,5.893,5.893,0,0,1-.63-1.01,2.17,2.17,0,0,1-.208-.917,2.28,2.28,0,0,1,.276-1.151,1.848,1.848,0,0,1,.779-.745,2.578,2.578,0,0,1,1.195-.26,2.223,2.223,0,0,1,1.09.257,1.94,1.94,0,0,1,.736.689,1.8,1.8,0,0,1,.266.964,1.825,1.825,0,0,1-.3,1.024,3.28,3.28,0,0,1-.841.845l-.58.415,1.776,2.1a3.423,3.423,0,0,0,.342-.793,3.262,3.262,0,0,0,.126-.917h1.172a4.846,4.846,0,0,1-.211,1.462,3.705,3.705,0,0,1-.627,1.2l1.161,1.377-.012.029h-1.664l-.469-.557a3.71,3.71,0,0,1-1.031.509A3.861,3.861,0,0,1,229.169,728.007Zm-10.383-3.92h2.455v-.152a1.951,1.951,0,0,0-.126-.73,1.036,1.036,0,0,0-.393-.489,1.216,1.216,0,0,0-.677-.176,1.022,1.022,0,0,0-.626.2,1.388,1.388,0,0,0-.431.542,2.631,2.631,0,0,0-.22.777Zm1.406,3.92a2.971,2.971,0,0,1-1.562-.4,2.729,2.729,0,0,1-1.031-1.11,3.491,3.491,0,0,1-.366-1.624v-.245a3.659,3.659,0,0,1,.36-1.65,2.852,2.852,0,0,1,.993-1.137,2.583,2.583,0,0,1,1.442-.412,2.792,2.792,0,0,1,1.444.345,2.189,2.189,0,0,1,.882.982,3.568,3.568,0,0,1,.3,1.526v.844h-3.891l-.011.029a2.267,2.267,0,0,0,.208.884,1.446,1.446,0,0,0,.527.61,1.5,1.5,0,0,0,.835.223,2.97,2.97,0,0,0,.937-.14,2.894,2.894,0,0,0,.78-.4l.463.926a3.159,3.159,0,0,1-.956.533A3.84,3.84,0,0,1,220.192,728.007Zm-6.4,0a2.861,2.861,0,0,1-1.544-.406,2.709,2.709,0,0,1-1.008-1.125,3.7,3.7,0,0,1-.355-1.656v-.205a3.7,3.7,0,0,1,.352-1.64,2.715,2.715,0,0,1,1.005-1.135,2.829,2.829,0,0,1,1.544-.412,3.535,3.535,0,0,1,1.418.261,3.146,3.146,0,0,1,.99.646l.006,1.694h-1.125l-.217-1.12a1.2,1.2,0,0,0-.416-.272,1.476,1.476,0,0,0-.551-.1,1.314,1.314,0,0,0-.829.265,1.63,1.63,0,0,0-.521.729,3.027,3.027,0,0,0-.179,1.087v.205a3.054,3.054,0,0,0,.182,1.125,1.514,1.514,0,0,0,.506.692,1.248,1.248,0,0,0,.748.234,1.229,1.229,0,0,0,.829-.275,1.324,1.324,0,0,0,.419-.762h1.277l.017.034a2.638,2.638,0,0,1-.366,1.106,2.045,2.045,0,0,1-.832.758A2.946,2.946,0,0,1,213.788,728.007Zm-10.653-.122v-.9l.879-.175v-4.179l-.926-.175v-.909h2.286l.076.921a2.3,2.3,0,0,1,.788-.765,2.093,2.093,0,0,1,1.069-.272,1.951,1.951,0,0,1,1.524.6,2.735,2.735,0,0,1,.545,1.878v2.9l.878.175v.9h-3.181v-.9l.826-.175v-2.889a1.464,1.464,0,0,0-.287-1.022,1.13,1.13,0,0,0-.856-.3,1.439,1.439,0,0,0-.747.189,1.466,1.466,0,0,0-.518.531v3.493l.8.175v.9Zm-4.664-3.8h2.455v-.152a1.951,1.951,0,0,0-.126-.73,1.034,1.034,0,0,0-.392-.489,1.218,1.218,0,0,0-.677-.176,1.027,1.027,0,0,0-.627.2,1.4,1.4,0,0,0-.431.542,2.661,2.661,0,0,0-.219.777Zm1.406,3.92a2.968,2.968,0,0,1-1.561-.4,2.729,2.729,0,0,1-1.031-1.11,3.491,3.491,0,0,1-.366-1.624v-.245a3.659,3.659,0,0,1,.36-1.65,2.837,2.837,0,0,1,.993-1.137,2.579,2.579,0,0,1,1.441-.412,2.8,2.8,0,0,1,1.445.345,2.2,2.2,0,0,1,.882.982,3.568,3.568,0,0,1,.3,1.526v.844h-3.89l-.012.029a2.285,2.285,0,0,0,.208.884,1.453,1.453,0,0,0,.527.61,1.5,1.5,0,0,0,.835.223,2.976,2.976,0,0,0,.938-.14,2.888,2.888,0,0,0,.779-.4l.463.926a3.153,3.153,0,0,1-.955.533A3.85,3.85,0,0,1,199.877,728.007Zm-6.046-7.9v-1.367h1.535v1.367Zm-.821,7.775v-.9l.879-.175v-4.179l-.931-.175v-.909h2.408v5.263l.873.175v.9Zm-3.328.122a2.863,2.863,0,0,1-1.544-.406,2.723,2.723,0,0,1-1.008-1.125,3.7,3.7,0,0,1-.354-1.656v-.205a3.7,3.7,0,0,1,.351-1.64,2.729,2.729,0,0,1,1.005-1.135,2.833,2.833,0,0,1,1.544-.412,3.532,3.532,0,0,1,1.418.261,3.139,3.139,0,0,1,.991.646l0,1.694h-1.125l-.216-1.12a1.212,1.212,0,0,0-.416-.272,1.476,1.476,0,0,0-.551-.1,1.312,1.312,0,0,0-.829.265,1.624,1.624,0,0,0-.522.729,3.027,3.027,0,0,0-.179,1.087v.205a3.054,3.054,0,0,0,.182,1.125,1.509,1.509,0,0,0,.507.692,1.247,1.247,0,0,0,.747.234,1.227,1.227,0,0,0,.829-.275,1.319,1.319,0,0,0,.419-.762h1.277l.018.034a2.666,2.666,0,0,1-.366,1.106,2.052,2.052,0,0,1-.832.758A2.953,2.953,0,0,1,189.682,728.007Zm-6.838,0a5.805,5.805,0,0,1-1.623-.217,4.8,4.8,0,0,1-1.459-.72v-1.963H180.9l.187,1.271a2.49,2.49,0,0,0,.765.358,3.489,3.489,0,0,0,.987.135,2.25,2.25,0,0,0,.876-.15,1.208,1.208,0,0,0,.542-.418,1.1,1.1,0,0,0,.188-.64,1.124,1.124,0,0,0-.164-.6,1.428,1.428,0,0,0-.545-.471,4.868,4.868,0,0,0-1.031-.384,7.336,7.336,0,0,1-1.6-.609,2.661,2.661,0,0,1-.967-.844,2.2,2.2,0,0,1,.047-2.374,2.533,2.533,0,0,1,1.034-.831,3.687,3.687,0,0,1,1.529-.311,4.861,4.861,0,0,1,1.679.246,4.019,4.019,0,0,1,1.234.674v1.834h-1.12l-.211-1.2a2.271,2.271,0,0,0-.624-.289,3.007,3.007,0,0,0-.9-.12,1.981,1.981,0,0,0-.785.146,1.246,1.246,0,0,0-.533.414,1.05,1.05,0,0,0-.194.635.951.951,0,0,0,.17.562,1.48,1.48,0,0,0,.569.437,7,7,0,0,0,1.078.4,5.01,5.01,0,0,1,2.1,1.018,2.147,2.147,0,0,1,.715,1.66,2.059,2.059,0,0,1-.384,1.239,2.487,2.487,0,0,1-1.078.823A4.186,4.186,0,0,1,182.844,728.007Zm163.283-15.122v-.9l.885-.175V707.6h-.967v-1.056h.967V705.8a2.166,2.166,0,0,1,.577-1.611,2.2,2.2,0,0,1,1.615-.568,3.811,3.811,0,0,1,.515.037,4.426,4.426,0,0,1,.5.1l-.146,1.107a2.408,2.408,0,0,0-.3-.049,2.892,2.892,0,0,0-.357-.021.9.9,0,0,0-.7.257,1.09,1.09,0,0,0-.231.75v.744H349.9V707.6h-1.418v4.207l1.107.175v.9Zm-3.779-1.014a1.229,1.229,0,0,0,.812-.266,1.6,1.6,0,0,0,.477-.739,3.4,3.4,0,0,0,.158-1.087v-.123a3.355,3.355,0,0,0-.158-1.078,1.6,1.6,0,0,0-.48-.738,1.229,1.229,0,0,0-.821-.27,1.21,1.21,0,0,0-.808.27,1.585,1.585,0,0,0-.478.738,3.444,3.444,0,0,0-.155,1.078v.123a3.49,3.49,0,0,0,.155,1.087,1.563,1.563,0,0,0,.481.739A1.25,1.25,0,0,0,342.348,711.871Zm0,1.136a2.9,2.9,0,0,1-1.57-.41,2.672,2.672,0,0,1-1.008-1.139,3.83,3.83,0,0,1-.351-1.679v-.123a3.8,3.8,0,0,1,.351-1.67,2.722,2.722,0,0,1,1.008-1.142,2.842,2.842,0,0,1,1.558-.416,2.892,2.892,0,0,1,1.571.412,2.72,2.72,0,0,1,1.008,1.141,3.8,3.8,0,0,1,.351,1.675v.123a3.83,3.83,0,0,1-.351,1.679,2.692,2.692,0,0,1-1.005,1.139A2.873,2.873,0,0,1,342.348,713.007Zm-10.617-3.92h2.455v-.152a1.951,1.951,0,0,0-.126-.73,1.04,1.04,0,0,0-.392-.489,1.218,1.218,0,0,0-.677-.176,1.025,1.025,0,0,0-.627.2,1.4,1.4,0,0,0-.431.542,2.66,2.66,0,0,0-.22.777Zm1.406,3.92a2.968,2.968,0,0,1-1.561-.4,2.731,2.731,0,0,1-1.032-1.11,3.49,3.49,0,0,1-.366-1.624v-.245a3.646,3.646,0,0,1,.361-1.65,2.837,2.837,0,0,1,.993-1.137,2.579,2.579,0,0,1,1.441-.412,2.8,2.8,0,0,1,1.445.345,2.192,2.192,0,0,1,.881.982,3.554,3.554,0,0,1,.3,1.526v.844h-3.89l-.012.029a2.267,2.267,0,0,0,.208.884,1.453,1.453,0,0,0,.527.61,1.5,1.5,0,0,0,.835.223,2.981,2.981,0,0,0,.938-.14,2.888,2.888,0,0,0,.779-.4l.463.926a3.165,3.165,0,0,1-.955.533A3.849,3.849,0,0,1,333.137,713.007Zm-4.429-5.349-.622-1.114h1.583v.909Zm-2.5,4.183a1.307,1.307,0,0,0,1.224-.709v-2.823a1.474,1.474,0,0,0-.5-.526,1.338,1.338,0,0,0-.721-.189,1.156,1.156,0,0,0-.8.278,1.633,1.633,0,0,0-.463.774,3.981,3.981,0,0,0-.15,1.151v.122a2.559,2.559,0,0,0,.337,1.4A1.179,1.179,0,0,0,326.206,711.841Zm-.118,3.6a4.929,4.929,0,0,1-1.04-.125,4.222,4.222,0,0,1-1-.349l.3-1.079a4.478,4.478,0,0,0,.826.276,3.784,3.784,0,0,0,.856.1,1.313,1.313,0,0,0,1.063-.4,1.713,1.713,0,0,0,.337-1.134v-.5a1.973,1.973,0,0,1-.7.571,2.079,2.079,0,0,1-.926.2,2.293,2.293,0,0,1-1.333-.386,2.433,2.433,0,0,1-.855-1.084,4.1,4.1,0,0,1-.3-1.618V709.8a4.817,4.817,0,0,1,.3-1.769,2.645,2.645,0,0,1,.849-1.178,2.12,2.12,0,0,1,1.322-.422,2.056,2.056,0,0,1,1.007.236,2.129,2.129,0,0,1,.727.677l.111-.8h1.272v6.2a2.936,2.936,0,0,1-.334,1.434,2.287,2.287,0,0,1-.967.936A3.221,3.221,0,0,1,326.088,715.445Zm-7.593-6.358h2.455v-.152a1.951,1.951,0,0,0-.126-.73,1.036,1.036,0,0,0-.393-.489,1.216,1.216,0,0,0-.677-.176,1.027,1.027,0,0,0-.627.2,1.4,1.4,0,0,0-.43.542,2.631,2.631,0,0,0-.22.777Zm1.406,3.92a2.972,2.972,0,0,1-1.562-.4,2.728,2.728,0,0,1-1.031-1.11,3.49,3.49,0,0,1-.366-1.624v-.245a3.659,3.659,0,0,1,.36-1.65,2.852,2.852,0,0,1,.993-1.137,2.583,2.583,0,0,1,1.442-.412,2.792,2.792,0,0,1,1.444.345,2.188,2.188,0,0,1,.882.982,3.568,3.568,0,0,1,.3,1.526v.844h-3.891l-.011.029a2.25,2.25,0,0,0,.208.884,1.446,1.446,0,0,0,.527.61,1.5,1.5,0,0,0,.835.223,2.97,2.97,0,0,0,.937-.14,2.894,2.894,0,0,0,.78-.4l.463.926a3.159,3.159,0,0,1-.956.533A3.84,3.84,0,0,1,319.9,713.007Zm-6.762-.122v-.9l.885-.175v-6.979l-.938-.175v-.91h2.409v8.064l.884.175v.9Zm-3.826,0v-.9l.885-.175v-6.979l-.938-.175v-.91h2.409v8.064l.884.175v.9Zm-3.539-1.014a1.229,1.229,0,0,0,.812-.266,1.6,1.6,0,0,0,.477-.739,3.4,3.4,0,0,0,.158-1.087v-.123a3.355,3.355,0,0,0-.158-1.078,1.6,1.6,0,0,0-.48-.738,1.231,1.231,0,0,0-.821-.27,1.21,1.21,0,0,0-.808.27,1.585,1.585,0,0,0-.478.738,3.444,3.444,0,0,0-.155,1.078v.123a3.489,3.489,0,0,0,.155,1.087,1.563,1.563,0,0,0,.481.739A1.248,1.248,0,0,0,305.774,711.871Zm0,1.136a2.9,2.9,0,0,1-1.57-.41,2.672,2.672,0,0,1-1.008-1.139,3.816,3.816,0,0,1-.352-1.679v-.123a3.785,3.785,0,0,1,.352-1.67,2.721,2.721,0,0,1,1.008-1.142,2.842,2.842,0,0,1,1.558-.416,2.892,2.892,0,0,1,1.571.412,2.711,2.711,0,0,1,1.007,1.141,3.789,3.789,0,0,1,.352,1.675v.123a3.816,3.816,0,0,1-.352,1.679,2.683,2.683,0,0,1-1,1.139A2.876,2.876,0,0,1,305.774,713.007Zm-6.65,0a4.108,4.108,0,0,1-2.154-.536,3.511,3.511,0,0,1-1.365-1.5,5.044,5.044,0,0,1-.472-2.24v-.218a5,5,0,0,1,.469-2.211,3.647,3.647,0,0,1,1.342-1.519,3.813,3.813,0,0,1,2.086-.552,4.779,4.779,0,0,1,1.576.251,3.967,3.967,0,0,1,1.266.709v1.968h-1.125l-.153-1.318a2.183,2.183,0,0,0-.427-.24,2.537,2.537,0,0,0-.513-.152,3.205,3.205,0,0,0-.607-.052,2.227,2.227,0,0,0-1.315.386,2.412,2.412,0,0,0-.835,1.083,4.289,4.289,0,0,0-.287,1.636v.229a4.161,4.161,0,0,0,.305,1.672,2.383,2.383,0,0,0,.876,1.076,2.435,2.435,0,0,0,1.368.375,3.234,3.234,0,0,0,.764-.092,3.114,3.114,0,0,0,.665-.236l.159-1.2h1.113v1.957a4.346,4.346,0,0,1-1.2.522A5.705,5.705,0,0,1,299.124,713.007Zm-11.977-.122v-.9l.879-.175v-4.179l-.926-.175v-.909h2.285l.076.8.012.13a2.122,2.122,0,0,1,.618-.775,1.416,1.416,0,0,1,.859-.268,2.416,2.416,0,0,1,.348.028,2.186,2.186,0,0,1,.3.066l-.17,1.365-.826-.047a1.034,1.034,0,0,0-.665.157,1.436,1.436,0,0,0-.436.505v3.3l.878.175v.9Zm-3.8-1.014a1.229,1.229,0,0,0,.812-.266,1.6,1.6,0,0,0,.477-.739,3.4,3.4,0,0,0,.159-1.087v-.123a3.354,3.354,0,0,0-.159-1.078,1.6,1.6,0,0,0-.48-.738,1.228,1.228,0,0,0-.82-.27,1.211,1.211,0,0,0-.809.27,1.585,1.585,0,0,0-.478.738,3.444,3.444,0,0,0-.155,1.078v.123a3.49,3.49,0,0,0,.155,1.087,1.563,1.563,0,0,0,.481.739A1.25,1.25,0,0,0,283.344,711.871Zm0,1.136a2.9,2.9,0,0,1-1.57-.41,2.679,2.679,0,0,1-1.008-1.139,3.83,3.83,0,0,1-.351-1.679v-.123a3.8,3.8,0,0,1,.351-1.67,2.729,2.729,0,0,1,1.008-1.142,2.843,2.843,0,0,1,1.559-.416,2.891,2.891,0,0,1,1.57.412,2.72,2.72,0,0,1,1.008,1.141,3.8,3.8,0,0,1,.351,1.675v.123a3.83,3.83,0,0,1-.351,1.679,2.692,2.692,0,0,1-1.005,1.139A2.873,2.873,0,0,1,283.344,713.007Zm-6.029-7.9v-1.367h1.535v1.367Zm-.82,7.775v-.9l.879-.175v-4.179l-.932-.175v-.909h2.408v5.263l.873.175v.9Zm-7.741,0v-.9l.879-.175v-4.179l-.925-.175v-.909h2.285l.076.921a2.31,2.31,0,0,1,.788-.765,2.094,2.094,0,0,1,1.069-.272,1.951,1.951,0,0,1,1.524.6,2.736,2.736,0,0,1,.545,1.878v2.9l.879.175v.9h-3.182v-.9l.826-.175v-2.889a1.464,1.464,0,0,0-.287-1.022,1.127,1.127,0,0,0-.855-.3,1.441,1.441,0,0,0-.748.189,1.474,1.474,0,0,0-.518.531v3.493l.8.175v.9Zm-4.623.122a2.01,2.01,0,0,1-1.59-.646,2.988,2.988,0,0,1-.572-2.014v-2.719l-.715-.175v-.909h2.192v3.816a1.912,1.912,0,0,0,.261,1.151.962.962,0,0,0,.8.33,1.649,1.649,0,0,0,.818-.189,1.417,1.417,0,0,0,.536-.542v-3.482l-.8-.175v-.909h2.273v5.263l.75.175v.9h-2.056l-.1-.862a2.067,2.067,0,0,1-.759.729A2.108,2.108,0,0,1,264.131,713.007Zm-6.972,0a3.412,3.412,0,0,1-1.445-.292,2.309,2.309,0,0,1-1-.894,3.056,3.056,0,0,1-.407-1.508l.012-.035h1.4a1.837,1.837,0,0,0,.381,1.209,1.263,1.263,0,0,0,.955.36,1.312,1.312,0,0,0,.692-.175,1.134,1.134,0,0,0,.439-.5,1.846,1.846,0,0,0,.152-.786v-4.944l-1.142-.171v-.913h3.551v.908l-.938.176v4.944a3,3,0,0,1-.3,1.39,2.14,2.14,0,0,1-.894.913A2.975,2.975,0,0,1,257.159,713.007Zm-9.955-1.142a1.737,1.737,0,0,0,.832-.208,1.473,1.473,0,0,0,.58-.525v-1.059h-.985a1.433,1.433,0,0,0-1,.307.946.946,0,0,0-.337.717.7.7,0,0,0,.235.568A1.006,1.006,0,0,0,247.2,711.865Zm-.334,1.142a2.139,2.139,0,0,1-1.506-.5,1.773,1.773,0,0,1-.539-1.372,1.733,1.733,0,0,1,.328-1.048,2.138,2.138,0,0,1,.961-.707,4.129,4.129,0,0,1,1.535-.255h.967V708.6a1.078,1.078,0,0,0-.3-.8,1.194,1.194,0,0,0-.876-.3,1.959,1.959,0,0,0-.58.08,1.5,1.5,0,0,0-.451.226l-.135.855h-1.084l-.012-1.564a4.225,4.225,0,0,1,1.043-.484,4.3,4.3,0,0,1,1.278-.178,2.932,2.932,0,0,1,1.9.564,1.971,1.971,0,0,1,.694,1.621v2.8c0,.085,0,.17,0,.251s.007.162.015.242l.644.081v.9h-1.927c-.039-.138-.075-.27-.109-.4a3.081,3.081,0,0,1-.073-.386,2.612,2.612,0,0,1-.765.652A1.993,1.993,0,0,1,246.87,713.007Zm-7.711,2.438a2.7,2.7,0,0,1-.419-.036,2.661,2.661,0,0,1-.413-.088l.164-1.106c.07.011.155.021.255.028s.178.013.237.013a.881.881,0,0,0,.621-.232,1.659,1.659,0,0,0,.41-.642l.194-.51-2.168-5.313-.739-.106v-.909h3.071v.909l-.78.117,1.1,2.953.193.551h.035l1.3-3.51-.779-.111v-.909h2.912v.909l-.686.1-2.455,6.287a3.8,3.8,0,0,1-.436.812,1.911,1.911,0,0,1-.656.579A2.011,2.011,0,0,1,239.159,715.445Zm-4.67-10.335v-1.367h1.535v1.367Zm-.82,7.775v-.9l.878-.175v-4.179l-.931-.175v-.909h2.408v5.263l.873.175v.9Zm-4.231-1.02a1.737,1.737,0,0,0,.832-.208,1.474,1.474,0,0,0,.58-.525v-1.059h-.984a1.43,1.43,0,0,0-1,.307.942.942,0,0,0-.337.717.7.7,0,0,0,.234.568A1.006,1.006,0,0,0,229.438,711.865Zm-.334,1.142a2.142,2.142,0,0,1-1.506-.5,1.776,1.776,0,0,1-.539-1.372,1.74,1.74,0,0,1,.328-1.048,2.138,2.138,0,0,1,.961-.707,4.132,4.132,0,0,1,1.535-.255h.967V708.6a1.074,1.074,0,0,0-.3-.8,1.194,1.194,0,0,0-.876-.3,1.964,1.964,0,0,0-.58.08,1.5,1.5,0,0,0-.451.226l-.135.855h-1.084l-.011-1.564a4.208,4.208,0,0,1,1.043-.484,4.284,4.284,0,0,1,1.277-.178,2.93,2.93,0,0,1,1.9.564,1.971,1.971,0,0,1,.695,1.621v2.8c0,.085,0,.17,0,.251s.006.162.014.242l.645.081v.9h-1.928c-.039-.138-.075-.27-.108-.4a2.918,2.918,0,0,1-.074-.386,2.6,2.6,0,0,1-.764.652A2,2,0,0,1,229.1,713.007Zm-13.512-.122v-.9l.885-.175v-4.179l-.932-.175v-.909h2.286l.07.833a2.164,2.164,0,0,1,.776-.7,2.26,2.26,0,0,1,1.081-.249,1.972,1.972,0,0,1,1.064.277,1.733,1.733,0,0,1,.671.842,2.239,2.239,0,0,1,.77-.821,2.084,2.084,0,0,1,1.122-.3,1.858,1.858,0,0,1,1.5.65,3,3,0,0,1,.548,1.969v2.76l.885.175v.9h-3.193v-.9l.832-.175V709.04a1.786,1.786,0,0,0-.27-1.125.971.971,0,0,0-.791-.321,1.085,1.085,0,0,0-.8.31,1.479,1.479,0,0,0-.407.791v3.112l.8.175v.9h-3.076v-.9l.8-.175V709.04a1.772,1.772,0,0,0-.275-1.11.968.968,0,0,0-.8-.336,1.422,1.422,0,0,0-.73.175,1.285,1.285,0,0,0-.471.5v3.54l.826.175v.9Zm-3.7-1.014a1.229,1.229,0,0,0,.812-.266,1.6,1.6,0,0,0,.477-.739,3.4,3.4,0,0,0,.158-1.087v-.123a3.356,3.356,0,0,0-.158-1.078,1.6,1.6,0,0,0-.48-.738,1.231,1.231,0,0,0-.821-.27,1.21,1.21,0,0,0-.808.27,1.585,1.585,0,0,0-.478.738,3.444,3.444,0,0,0-.155,1.078v.123a3.49,3.49,0,0,0,.155,1.087,1.563,1.563,0,0,0,.481.739A1.248,1.248,0,0,0,211.9,711.871Zm0,1.136a2.9,2.9,0,0,1-1.57-.41,2.672,2.672,0,0,1-1.008-1.139,3.83,3.83,0,0,1-.352-1.679v-.123a3.8,3.8,0,0,1,.352-1.67,2.722,2.722,0,0,1,1.008-1.142,2.842,2.842,0,0,1,1.558-.416,2.892,2.892,0,0,1,1.571.412,2.711,2.711,0,0,1,1.007,1.141,3.789,3.789,0,0,1,.352,1.675v.123a3.816,3.816,0,0,1-.352,1.679,2.683,2.683,0,0,1-1,1.139A2.873,2.873,0,0,1,211.9,713.007Zm-6.861,0a5.805,5.805,0,0,1-1.623-.217,4.789,4.789,0,0,1-1.459-.72v-1.963h1.142l.188,1.271a2.5,2.5,0,0,0,.764.358,3.491,3.491,0,0,0,.988.135,2.257,2.257,0,0,0,.876-.15,1.213,1.213,0,0,0,.542-.418,1.1,1.1,0,0,0,.187-.64,1.116,1.116,0,0,0-.164-.6,1.421,1.421,0,0,0-.545-.471,4.847,4.847,0,0,0-1.031-.384,7.336,7.336,0,0,1-1.6-.609,2.657,2.657,0,0,1-.966-.844,2.2,2.2,0,0,1,.046-2.374,2.529,2.529,0,0,1,1.035-.831,3.684,3.684,0,0,1,1.529-.311,4.865,4.865,0,0,1,1.679.246,4.013,4.013,0,0,1,1.233.674v1.834h-1.119l-.211-1.2a2.271,2.271,0,0,0-.624-.289,3.016,3.016,0,0,0-.905-.12,1.986,1.986,0,0,0-.786.146,1.252,1.252,0,0,0-.533.414,1.049,1.049,0,0,0-.193.635.951.951,0,0,0,.17.562,1.476,1.476,0,0,0,.568.437,7.039,7.039,0,0,0,1.078.4,5.021,5.021,0,0,1,2.1,1.018,2.15,2.15,0,0,1,.715,1.66,2.059,2.059,0,0,1-.384,1.239,2.493,2.493,0,0,1-1.078.823A4.186,4.186,0,0,1,205.034,713.007Zm-10.5,0a3.412,3.412,0,0,1-1.445-.292,2.309,2.309,0,0,1-1-.894,3.056,3.056,0,0,1-.407-1.508l.012-.035h1.4a1.837,1.837,0,0,0,.381,1.209,1.263,1.263,0,0,0,.955.36,1.312,1.312,0,0,0,.692-.175,1.134,1.134,0,0,0,.439-.5,1.847,1.847,0,0,0,.152-.786v-4.944l-1.142-.171v-.913h3.551v.908l-.938.176v4.944a3,3,0,0,1-.3,1.39,2.14,2.14,0,0,1-.894.913A2.975,2.975,0,0,1,194.534,713.007Zm-9.668-.122v-.9l.756-.076V711.9l-2.25-3.107.925-1.037,3.053,4.078.815.147v.9Zm-4.969,0v-.9l.932-.175v-6.369l-.932-.176v-.908h3.311v.908l-.9.176v6.369l.9.175v.9Zm2.168-2.25-.773-.892,4.125-4.382.017-.024-.756-.075v-.908h3.182v.908l-.8.157Z"/><path class="a" d="M131.8,643.616l-.1.009c-.146.514-.294,1.027-.46,1.606l1.253-.084c-.247-.555-.457-1.05-.7-1.531m2.356,3.074a1.456,1.456,0,0,1-.157.052c-.708.086-.708.086-1.009-.557-.175-.372-.175-.371-.6-.337-.345.027-.691.057-1.035.07a.378.378,0,0,0-.419.341,7.163,7.163,0,0,1-.205.7l-.858.066c.042-.159.068-.272.1-.382q.582-1.883,1.167-3.764c.094-.309.1-.317.416-.326.705-.02.522-.154.845.5.522,1.06,1.029,2.129,1.543,3.193.066.139.129.278.206.444"/><path class="a" d="M138.719,645.249l-.034-.006a1.913,1.913,0,0,0,0-.214.772.772,0,0,0-1.515-.158,1.389,1.389,0,0,0-.026.844.763.763,0,0,0,.695.573.742.742,0,0,0,.754-.487,3.751,3.751,0,0,0,.127-.552m-2.43.092a1.614,1.614,0,1,1,1.64,1.587,1.518,1.518,0,0,1-1.64-1.587"/><path class="a" d="M140.864,647.3c-.258-.059-.486-.109-.754-.169.236-1.023.466-2.013.7-3.038l.682.138c-.009.136-.016.249-.026.415.123-.057.22-.108.322-.149a1.254,1.254,0,0,1,1.257.125.745.745,0,0,1,.349.666,2.758,2.758,0,0,1-.054.5c-.125.582-.262,1.162-.4,1.743-.016.068-.047.132-.083.237l-.742-.173c.11-.485.216-.936.315-1.387a6.022,6.022,0,0,0,.121-.632c.036-.353-.073-.533-.343-.624a.64.64,0,0,0-.755.249,1.324,1.324,0,0,0-.163.394c-.124.485-.236.973-.354,1.46-.016.067-.042.134-.078.248"/><path class="a" d="M134.735,642.419h.759c.053.716,0,1.426,0,2.135s-.021,1.427-.032,2.167h-.788c-.016-1.431.071-2.843.062-4.3"/><path class="a" d="M160.5,679.939a25.939,25.939,0,0,1-51.7.128,13.048,13.048,0,0,0,12.918,10.8,12.915,12.915,0,0,0,12.168-8.64c-.16-.1-.328-.207-.5-.311a9.271,9.271,0,0,1-3.4-3.518,6.6,6.6,0,0,1-.827-2.978,6.007,6.007,0,0,1,.881-3.351,12.348,12.348,0,0,1,1.142-1.557,15.718,15.718,0,0,0,2.184-3.1,7.521,7.521,0,0,0,.835-3.053,9.484,9.484,0,0,0-.228-2.24c-.1-.5-.176-1.011-.259-1.518a2.333,2.333,0,0,1,0-.318,2.338,2.338,0,0,1,.284.146,16.77,16.77,0,0,1,5.6,6.365,11.831,11.831,0,0,1-.469,11.2,10.854,10.854,0,0,1-2.439,2.655q-.474.384-.94.776c-.1.084-.186.185-.283.274a.428.428,0,0,0-.1.517,13.075,13.075,0,0,0,1.088,2.3,12.76,12.76,0,0,0,8.889,6.145,12.967,12.967,0,0,0,14.2-7.556,14.394,14.394,0,0,0,.957-3.169"/><path class="a" d="M105.735,687.507c-.084-.291-.163-.564-.247-.853a.944.944,0,0,1,.143-.1,1.547,1.547,0,0,0,.992-1.756,3.448,3.448,0,0,0-.349-1.271,1.334,1.334,0,0,0-.712-.674.949.949,0,0,0-1.315.666,9.123,9.123,0,0,0-.144,1.314c-.037.524-.041,1.05-.08,1.574a3.428,3.428,0,0,1-.133.664,2.063,2.063,0,0,1-3.151,1.132,2.679,2.679,0,0,1-1.045-1.287,4.485,4.485,0,0,1-.3-2.665,2.488,2.488,0,0,1,1.779-1.929,1.042,1.042,0,0,1,.172-.021c.088.286.174.565.264.852a1.57,1.57,0,0,1-.176.105,1.783,1.783,0,0,0-1.168,1.581,3.047,3.047,0,0,0,.617,2.288,1.172,1.172,0,0,0,1.034.47.99.99,0,0,0,.922-.633,3.286,3.286,0,0,0,.2-.865c.048-.523.041-1.051.082-1.575a7.1,7.1,0,0,1,.164-1.238,1.789,1.789,0,0,1,1.7-1.449,1.982,1.982,0,0,1,1.862.929,3.886,3.886,0,0,1,.615,1.59,3.771,3.771,0,0,1,0,1.389,2.178,2.178,0,0,1-1.722,1.763"/><path class="a" d="M108.479,693.714c-.2.165-.366.307-.533.447l.012.074a2.1,2.1,0,0,1,1.72.8,1.632,1.632,0,0,1,.235,1.885c.155.019.277.038.4.046a2.011,2.011,0,0,1,1.661,1.037,1.5,1.5,0,0,1-.183,1.912,2.946,2.946,0,0,1-.364.343q-1.494,1.175-2.993,2.341c-.047.036-.1.066-.187.127-.183-.23-.364-.456-.558-.7.11-.093.2-.173.29-.245.809-.634,1.62-1.264,2.427-1.9a5.647,5.647,0,0,0,.592-.52.867.867,0,0,0,.158-1.086,1.339,1.339,0,0,0-1.756-.657,3.2,3.2,0,0,0-.611.367c-.779.595-1.547,1.2-2.32,1.8-.1.079-.206.153-.33.246l-.555-.713c.112-.1.2-.176.289-.247.837-.657,1.678-1.306,2.51-1.968a3.706,3.706,0,0,0,.589-.572.848.848,0,0,0,.023-1.064,1.336,1.336,0,0,0-1.72-.528,4.843,4.843,0,0,0-.878.547c-.687.517-1.36,1.055-2.038,1.584-.1.08-.207.154-.333.248-.191-.242-.367-.463-.573-.721l4.513-3.529.514.636"/><path class="a" d="M120.077,656.572l.536.69-.6.517,2.968,3.81a1.729,1.729,0,0,1-.259.073c-.142.015-.288,0-.429.027a.7.7,0,0,1-.749-.338c-.666-.89-1.36-1.758-2.045-2.634-.079-.1-.164-.2-.263-.324a4.411,4.411,0,0,0-1.126.951c1.112,1.152,2.218,2.3,3.383,3.51-.4.069-.736.139-1.073.174-.081.009-.189-.082-.26-.154-.388-.39-.766-.788-1.148-1.182-.083-.084-.169-.162-.291-.277-.339.376-.664.733-1.007,1.113l.8.745a.39.39,0,0,1-.389.193c-.43-.005-.86-.01-1.29-.018a.464.464,0,0,1-.491-.286.532.532,0,0,1,.129-.591c.461-.5.912-1.011,1.366-1.518.08-.089.154-.18.26-.3l-.711-.734c-.855.734-1.5,1.613-2.292,2.409l-.663-.587,1.726-1.919.267.185.022-.027-.159-.233a25.315,25.315,0,0,1,3.79-3.271"/><path class="a" d="M142.24,654.366c.026.253.053.5.08.761-.284.028-.531.05-.776.08a1.493,1.493,0,0,0-.312.073.372.372,0,0,0-.3.43.39.39,0,0,0,.348.395,3.617,3.617,0,0,0,.742-.025,2.574,2.574,0,0,0,.413-.116c-.012.148-.023.271-.034.4a9.845,9.845,0,0,0,.8-2.173l-2.69-.752.234-.837c.107.016.187.019.263.039.563.16,1.125.323,1.687.483l1.385.393a4.48,4.48,0,0,0-.321-.41,5.513,5.513,0,0,0-1.825-1.3.448.448,0,0,1-.33-.478c0-.236-.035-.471-.06-.785a7.793,7.793,0,0,1,1.045.5,7.69,7.69,0,0,1,.856.774,1.354,1.354,0,0,0-.024-.223c-.1-.3-.208-.61-.321-.912a.724.724,0,0,0-.416-.508.266.266,0,0,1-.131-.187c-.038-.307-.056-.615-.088-.995a8,8,0,0,1,1,.475.984.984,0,0,1,.321.5c.173.534.332,1.073.459,1.618.138.592.25,1.192.34,1.794.043.282.126.476.428.523a1.011,1.011,0,0,1,.2.095c-.093.268-.186.53-.285.817l-.752-.239c-.316.749-.56,1.518-.843,2.273s-.547,1.5-.846,2.318c-.237-.328-.44-.588-.615-.868a.428.428,0,0,1,.009-.3c.094-.3.205-.605.327-.957-.178,0-.313,0-.448,0a1.413,1.413,0,0,1-1.465-1.364,1.039,1.039,0,0,1,.474-.981,2.165,2.165,0,0,1,1.458-.321"/><path class="a" d="M132.236,652.853a2.889,2.889,0,0,1-.061-.3c-.015-.177-.018-.355-.028-.563.391-.034.757-.066,1.122-.095.3-.023.6-.048.894-.065a.669.669,0,0,1,.541.1c.057.05.185.025.278.025.563,0,1.125,0,1.685,0h.368a1.934,1.934,0,0,1,.03.883l-.748.035c-.01.144-.024.27-.024.4,0,1.338,0,2.678-.006,4.016a.536.536,0,0,0,.249.5,1.267,1.267,0,0,1,.4,1.453,1.136,1.136,0,0,1-1.138.814,1.824,1.824,0,0,1-1.237-.394,3.938,3.938,0,0,1-.52-.489,11.651,11.651,0,0,1-1.081-1.534.514.514,0,0,1,.66.245,4.3,4.3,0,0,0,.98,1.135,1.377,1.377,0,0,0,1.331.325.6.6,0,0,0,.47-.564.463.463,0,0,0-.656-.493,1.764,1.764,0,0,0-.414.275,2.244,2.244,0,0,0-.237.258c-.17-.246-.317-.458-.46-.667a1.158,1.158,0,0,1,1.169-.61c-.029-.178-.164-.225-.265-.283a.442.442,0,0,1-.227-.446c.011-.573,0-1.147,0-1.72,0-.128-.01-.257-.019-.431-.562.046-1.1.074-1.623.139a.464.464,0,0,0-.377.564,1.935,1.935,0,0,0,.167.507,4.176,4.176,0,0,0,.869,1.176c.077.074.163.138.281.238l-.35.26a1.356,1.356,0,0,1-.2-.157c-.341-.4-.7-.787-1.009-1.209a2.36,2.36,0,0,1-.477-1.474.919.919,0,0,1,.26-.685.706.706,0,0,1,.363-.2c.64-.069,1.282-.11,1.961-.164.029.212.056.394.082.58a3.613,3.613,0,0,0,.015-1.359l-.341-.02c-.07-.005-.164.016-.21-.021-.214-.174-.452-.1-.685-.086-.5.032-1,.072-1.5.106-.093.007-.185,0-.288,0"/><path class="a" d="M143.238,709.234a3.949,3.949,0,0,0,.724,2,1.591,1.591,0,0,0,1.167.689,1.451,1.451,0,0,0,1.56-1.567,3.73,3.73,0,0,0-.824-2.213,1.489,1.489,0,0,0-1.67-.5,1.533,1.533,0,0,0-.957,1.592m2.407-2.1-.91-2.677c.3-.1.568-.195.868-.3.864,2.505,1.717,4.983,2.584,7.5l-.792.273c-.088-.209-.159-.381-.253-.6-.06.106-.1.169-.133.236a2.057,2.057,0,0,1-2.041,1.163,2.536,2.536,0,0,1-1.939-1.2,4.138,4.138,0,0,1-.7-2.615,2.187,2.187,0,0,1,3.065-1.872c.05.028.109.041.249.095"/><path class="a" d="M140.473,705.637c.071.374.133.7.2,1.046l-.854.174c-.045-.065-.09-.126-.163-.229a1.073,1.073,0,0,0-.059.112q-.574,1.621-1.146,3.242-.678,1.928-1.356,3.853c-.117.333-.119.333-.48.344-.18.006-.358.01-.537.013-.036,0-.071-.008-.155-.017-1.1-2.566-2.205-5.153-3.339-7.8l1.088-.05c.913,2.3,1.822,4.593,2.746,6.925a1.474,1.474,0,0,0,.11-.208q1.081-3.3,2.163-6.605c.092-.284.1-.288.4-.3.151-.009.3-.013.468-.021.022-.114.041-.2.064-.317l.85-.156"/><path class="a" d="M156.149,703.581c-.243.317-.447.6-.666.86s-.472.539-.705.808a1.7,1.7,0,0,0-.166.233.862.862,0,0,0,.028,1.035.9.9,0,0,0,1.03.289,2,2,0,0,0,1.24-1.7,2.315,2.315,0,0,0-.761-1.529m2.747,1.457c-.114.1-.191.172-.271.239-.147.122-.295.238-.457.37l-.561-.364c-.146.1-.124.277-.164.414a2.992,2.992,0,0,1-1.489,1.845,1.639,1.639,0,0,1-1,.227,1.606,1.606,0,0,1-1.333-2.139,2.741,2.741,0,0,1,.589-.933q.6-.663,1.2-1.333c.092-.105.164-.23.272-.384-.159-.17-.3-.342-.464-.493a.779.779,0,0,0-.77-.173,2.31,2.31,0,0,0-1.371,1.082.987.987,0,0,0-.066.734c.028.126.074.25.128.427-.241.144-.488.295-.755.456a1.725,1.725,0,0,1-.179-1.574,3.651,3.651,0,0,1,2.3-2.055,1.257,1.257,0,0,1,1.317.351,7.005,7.005,0,0,1,.57.642c.32.386.623.786.949,1.167a5.157,5.157,0,0,0,1.553,1.494"/><path class="a" d="M126.693,710.344a1.259,1.259,0,0,0-.166-.04c-.534-.043-1.069-.088-1.605-.126a5.189,5.189,0,0,0-.715-.022.821.821,0,0,0-.777.631.832.832,0,0,0,.331.948,2.032,2.032,0,0,0,.716.3,1.659,1.659,0,0,0,1.774-.564,3,3,0,0,0,.442-1.131m-2.523-1.94-.8-.358a1.8,1.8,0,0,1,1.646-1.125,3.974,3.974,0,0,1,2.319.613,1.361,1.361,0,0,1,.658,1.632c-.195.786-.435,1.564-.645,2.348-.1.38-.2.762-.262,1.15a4.785,4.785,0,0,0-.007.743c-.208-.057-.378-.1-.547-.149-.4-.113-.409-.134-.386-.547,0-.069.011-.138.018-.223-.165-.064-.289.041-.413.086a2.972,2.972,0,0,1-2.492-.2,1.545,1.545,0,0,1-.714-2.078,1.561,1.561,0,0,1,1.448-.945,8.812,8.812,0,0,1,1.21.089c.463.044.924.106,1.387.145.307.025.332,0,.416-.312a.977.977,0,0,0-.569-1.3,4.122,4.122,0,0,0-.988-.294,1.039,1.039,0,0,0-1.018.4c-.084.1-.164.2-.265.323"/><path class="a" d="M114.263,704.247c-.089-.06-.125-.087-.164-.108-.477-.269-.954-.538-1.432-.8a4.6,4.6,0,0,0-.569-.3.864.864,0,0,0-1.155.476.927.927,0,0,0,.158.943,2.033,2.033,0,0,0,.966.706,1.518,1.518,0,0,0,1.654-.341c.178-.174.341-.362.542-.577m-.968,2.957c-.267-.233-.48-.421-.713-.625.088-.216.17-.42.271-.665l-.444-.044a2.9,2.9,0,0,1-2.218-1.344,1.569,1.569,0,0,1,.934-2.4,1.748,1.748,0,0,1,1.253.15c.287.144.555.324.831.49.419.253.83.517,1.256.757.279.157.31.138.509-.1a.986.986,0,0,0,.016-1.448,4.057,4.057,0,0,0-.691-.616,1.09,1.09,0,0,0-1.247-.068c-.083.045-.166.087-.275.143-.191-.221-.377-.432-.581-.666a1.753,1.753,0,0,1,1.614-.43,3.725,3.725,0,0,1,2.261,1.754,1.33,1.33,0,0,1-.145,1.633c-.472.585-.972,1.148-1.461,1.72-.038.045-.079.088-.117.135a4.771,4.771,0,0,0-1.053,1.623"/><path class="a" d="M167.039,687.029c-.047.46-.088.9-.139,1.335-.037.319-.1.636-.125.956a.882.882,0,0,0,.671.969.9.9,0,0,0,1.024-.47,2.044,2.044,0,0,0,.219-1.553,1.77,1.77,0,0,0-1.65-1.237m-2,2.419c-.128.262-.25.517-.382.786a1.82,1.82,0,0,1-1.071-1.755,4.087,4.087,0,0,1,.614-2.107,1.417,1.417,0,0,1,1.8-.7c.687.2,1.364.434,2.049.643a5.354,5.354,0,0,0,2.089.407c-.087.273-.162.509-.235.747a.22.22,0,0,1-.247.162c-.153-.006-.306-.015-.511-.026.044.165.077.309.122.45a2.952,2.952,0,0,1-.241,2.355,1.556,1.556,0,0,1-1.753.872,1.578,1.578,0,0,1-1.283-1.557,8,8,0,0,1,.107-1.173c.062-.5.147-.993.206-1.489.036-.3.008-.323-.266-.413a1,1,0,0,0-1.367.558,4.3,4.3,0,0,0-.316,1.055.946.946,0,0,0,.327.87c.112.1.228.205.356.318"/><path class="a" d="M166.037,696.442c-.148.272-.281.511-.438.795-2.327-1.278-4.622-2.56-6.945-3.847.159-.283.3-.529.455-.811l2.472,1.365c-.027-.182-.038-.286-.058-.389a2.364,2.364,0,0,1,1.009-2.364,1.439,1.439,0,0,1,1.235-.18,4.11,4.11,0,0,1,.792.325c1.039.564,2.071,1.143,3.1,1.715.051.029.1.065.18.119-.144.262-.283.517-.432.79-.134-.067-.239-.116-.342-.172-.929-.514-1.857-1.033-2.79-1.542a2.954,2.954,0,0,0-.589-.257,1.034,1.034,0,0,0-1.154.364,1.471,1.471,0,0,0,.225,2.183c.546.381,1.144.689,1.724,1.021.444.255.9.5,1.346.748.061.033.117.077.206.137"/><path class="a" d="M155.151,667.959c-.157.078-.272.14-.391.191-.261.115-.449-.005-.459-.291a.631.631,0,0,1,.019-.213c.111-.366.223-.732.349-1.091a.667.667,0,0,1,.183-.258c.25-.227.411-.2.591.086.037.058.082.112.147.2l1.21-.667a9.2,9.2,0,0,0-.745-1.268l-4.13,2.577a1.79,1.79,0,0,1-.033-.272c.006-.189.04-.381.031-.57a.485.485,0,0,1,.276-.489c.988-.6,1.966-1.221,2.947-1.836.11-.068.218-.142.36-.236-.1-.2-.205-.377-.324-.6.244-.153.481-.3.744-.468a44.911,44.911,0,0,1,2.583,4.361l-.756.421-.466-.784-1.244.69.645,1.191-.869.491c-.227-.394-.437-.764-.668-1.169"/><path class="a" d="M120.449,656.2l1.333-.742c.437-.243.873-.488,1.336-.745a1.028,1.028,0,0,0-.182-.155c-.371-.162-.739-.334-1.121-.469a1.281,1.281,0,0,0-1.139.1.466.466,0,0,1-.641-.068,6.946,6.946,0,0,0-.58-.444,2.232,2.232,0,0,1,1.807-.414,9.847,9.847,0,0,1,2.149.968.414.414,0,0,0,.583-.011l.444.782-.793.472.837,1.536c-.25.137-.477.264-.705.391-.155.087-.314.17-.467.263a.665.665,0,0,0-.246.977.927.927,0,0,0,1.381.169.988.988,0,0,0-.071-.107.56.56,0,0,1-.108-.715.7.7,0,0,1,.712-.378.459.459,0,0,1,.253.115c.268.309.536.626.385,1.087a.533.533,0,0,0,0,.129,2.148,2.148,0,0,1,.87.575c-.194.111-.374.214-.533.307-.241-.14-.454-.265-.669-.386a.327.327,0,0,0-.337.005,1.944,1.944,0,0,1-2.571-.748,2.267,2.267,0,0,1-.273-.731.776.776,0,0,1,.47-.91c.208-.118.415-.235.622-.355.02-.011.033-.034.084-.092l-.391-.722-2,1.1c-.149-.265-.285-.51-.436-.782"/><path class="a" d="M104.788,689.636a3.4,3.4,0,0,0-2.153,1,1.628,1.628,0,0,0,1.21,2.761,3.178,3.178,0,0,0,2.238-.987,1.534,1.534,0,0,0,.322-1.787,1.614,1.614,0,0,0-1.617-.984m-.934,4.707a2.2,2.2,0,0,1-1.434-.549,2.878,2.878,0,0,1-1.04-1.941,2.345,2.345,0,0,1,.9-2.186,4.28,4.28,0,0,1,2.278-.962,2.284,2.284,0,0,1,1.505.355,2.883,2.883,0,0,1,1.261,2.815,2.415,2.415,0,0,1-.627,1.265,4.368,4.368,0,0,1-2.843,1.2"/><path class="a" d="M112.8,666.064l-.385.565c-.247-.152-.477-.292-.736-.449a27.022,27.022,0,0,1,2.7-4.089l.7.5-.446.664,3.934,2.87a4.658,4.658,0,0,1-1.011.36c-.1.023-.243-.072-.343-.145-.931-.668-1.856-1.344-2.784-2.017-.114-.082-.232-.162-.371-.259a6.137,6.137,0,0,0-.754,1.144l4.158,2.5a3.97,3.97,0,0,1-.974.474c-.081.032-.222-.056-.32-.115-.973-.58-1.945-1.167-2.916-1.749-.141-.086-.286-.164-.448-.258"/><path class="a" d="M146.8,706.122l.874-.468,3.586,3.276a.6.6,0,0,0,.02-.143q-.273-1.788-.548-3.574c-.045-.295-.074-.593-.125-.886a.258.258,0,0,1,.154-.319c.2-.095.4-.2.634-.323.08.576.155,1.1.224,1.634.21,1.586.425,3.171.623,4.76a9.672,9.672,0,0,1,.09,1.391,1.412,1.412,0,0,1-1.077,1.4c-.262.072-.288.065-.446-.157-.1-.146-.2-.294-.316-.468.138-.059.254-.107.369-.157a.964.964,0,0,0,.662-1.066c0-.012,0-.024,0-.036a1.485,1.485,0,0,0-.581-1.227c-1.317-1.1-2.6-2.257-3.887-3.394-.078-.068-.152-.142-.254-.241"/><path class="a" d="M119.2,704.216c.326.173.6.315.882.468-.237,1.609-.471,3.194-.711,4.812l3.611-3.269c.269.142.509.269.779.41a1.271,1.271,0,0,1-.158.207q-2.55,2.254-5.107,4.5a3.861,3.861,0,0,1-.9.583,1.367,1.367,0,0,1-1.53-.266.289.289,0,0,1-.106-.375c.077-.184.15-.371.237-.586.141.1.255.177.374.248a.972.972,0,0,0,1.252-.09,1.576,1.576,0,0,0,.682-1.178c.162-1.6.391-3.2.594-4.8.026-.2.057-.4.1-.667"/><path class="a" d="M149.056,656.928c.171-.147.342-.291.543-.463.065.051.19.142.31.236.462.361.92.722,1.383,1.081.109.085.211.165.116.329.059-.033.118-.068.21-.119l2.193,2.043-.591.654a29.4,29.4,0,0,0-2.946-2.526l-3.005,3.843c-.126-.384-.241-.7-.322-1.012a.413.413,0,0,1,.1-.283c.177-.249.37-.49.584-.768l-.249-.059a1.44,1.44,0,0,1-.8-2.206,1.107,1.107,0,0,1,1.231-.442c.642.15.711.246.661.892a2.325,2.325,0,0,1-.042.23,2.73,2.73,0,0,0-.38-.143,4.625,4.625,0,0,0-.77-.127.67.67,0,0,0-.387.148.3.3,0,0,0,0,.512,1.151,1.151,0,0,0,.732.247c.237,0,.473,0,.753,0l1.132-1.452c-.145-.12-.265-.215-.382-.312-.1-.079-.186-.16-.079-.3Z"/><path class="a" d="M126.393,653.339l.235.459.045-.016-.107-.5a12.173,12.173,0,0,1,2.365-.667c.07.251.141.509.218.789-.262.086-.484.162-.75.252.441,1.547.876,3.076,1.325,4.651a4.246,4.246,0,0,1-1.031-.3c-.064-.023-.1-.149-.134-.235-.086-.259-.159-.521-.247-.818-.121.089-.21.16-.3.226a1.443,1.443,0,0,1-2.167-.852,1.323,1.323,0,0,1,.955-1.484.274.274,0,0,1,.195.044c.178.137.346.285.534.444-.2.131-.37.234-.527.357a1.194,1.194,0,0,0-.477.61.424.424,0,0,0,.1.463c.135.123.289.075.436.009a1.546,1.546,0,0,0,.668-.628c.073-.118.152-.231.257-.391-.164-.567-.342-1.181-.534-1.849-.909.327-1.748.719-2.661,1.057-.111-.265-.216-.522-.342-.826l1.954-.788"/><path class="a" d="M149.544,663.669c-.245-.029-.377-.127-.388-.363a7,7,0,0,1,.127-2.032,1.687,1.687,0,0,1,.791-1.063.939.939,0,0,1,1.513.779c0,.081.011.163.017.243.774-.025.972.17.918.926l.339-.12c.1.111.2.213.281.325.25.335.867.135,1.007-.232a.385.385,0,0,0-.093-.4c-.174-.211-.342-.427-.533-.666l.675-.559c.55.611,1.028,1.259,1.577,1.916l-.683.56-.441-.485c-.068.082-.129.149-.183.22a1.708,1.708,0,0,1-1.006.638,1.219,1.219,0,0,1-.816-.146.423.423,0,0,0,.013.589,1.609,1.609,0,0,0,.784.542c.145.05.3.076.507.128a8.127,8.127,0,0,1-.838.674c-.048.035-.164.008-.233-.024a1.438,1.438,0,0,1-.936-1.9,9.068,9.068,0,0,1,.37-.854c-.254-.417-.539-.457-.878-.109-.2.205-.392.416-.622.66-.116-.258-.213-.479-.326-.731.162-.175.32-.351.481-.524.123-.133.264-.256.147-.465a.577.577,0,0,0-.61-.277.885.885,0,0,0-.575.5,4.043,4.043,0,0,0-.311,1.354c-.03.294-.05.588-.075.89"/><path class="a" d="M155.51,700.434l.651-.709,4.423,1.913a4.887,4.887,0,0,0-.415-.866c-.137-.291-.289-.576-.436-.862s-.292-.575-.438-.862-.294-.573-.44-.86-.288-.573-.441-.875l.64-.689c.117.223.212.4.3.579q1.133,2.3,2.262,4.593c.158.322.16.324-.083.581-.424.446-.288.414-.832.191q-2.437-.988-4.87-1.987c-.1-.039-.189-.085-.322-.147"/><path class="a" d="M104.015,665.753c.138.315.242.594.382.854a.585.585,0,0,0,.277.2c.3.136.614.257.965.4l-.308.775-4.028-1.63c.108-.266.2-.494.314-.768.586.231,1.153.455,1.719.68l.06-.061c-.051-.115-.1-.229-.152-.343-.277-.583-.55-1.166-.835-1.745a.505.505,0,0,1-.016-.476c.109-.235.2-.479.325-.775.086.178.149.3.206.428.2.457.407.916.612,1.373.14.309.15.313.491.246.773-.151,1.546-.306,2.318-.457.125-.023.251-.036.434-.062-.132.331-.231.611-.36.876a.386.386,0,0,1-.263.139c-.624.1-1.25.191-1.875.284-.07.01-.137.031-.266.061"/><path class="a" d="M121.867,647.2a1.646,1.646,0,0,0,.336.916.661.661,0,0,0,.75.271.707.707,0,0,0,.494-.708,1.465,1.465,0,0,0-.392-.971.656.656,0,0,0-.781-.168.663.663,0,0,0-.407.66m.168,2.521c.25-.067.5-.137.749-.195a.228.228,0,0,1,.161.047.5.5,0,0,0,.511.048c.511-.17.632-.42.448-.93-.043-.122-.1-.239-.164-.406-.068.1-.115.161-.151.226a1.139,1.139,0,0,1-1.743.372,1.94,1.94,0,0,1-.746-1.872,1.183,1.183,0,0,1,1.605-.959c.065.022.131.041.231.075-.023-.137-.041-.236-.066-.384.2-.074.4-.154.627-.238a1.465,1.465,0,0,1,.108.191c.319.822.645,1.644.946,2.474a4.184,4.184,0,0,1,.193.867.769.769,0,0,1-.3.7,2.486,2.486,0,0,1-1.642.609.759.759,0,0,1-.768-.621"/><path class="a" d="M108.607,655.753l.559-.533q.9.473,1.792.94c.018-.016.037-.034.055-.052-.307-.6-.7-1.145-1.032-1.757l.526-.55,1.822,1.028a4.05,4.05,0,0,0-.481-.961c-.161-.3-.336-.6-.515-.916.169-.178.322-.34.477-.5a19.112,19.112,0,0,1,1.591,2.867l-.553.506c-.549-.3-1.125-.619-1.7-.936l-.061.064c.31.57.675,1.11,1.009,1.7-.171.184-.34.363-.532.566-.97-.483-1.928-.958-2.953-1.466"/><path class="a" d="M119.03,648.207a.7.7,0,0,0-.767.731,1.6,1.6,0,0,0,.517,1.029.676.676,0,0,0,.819.131.693.693,0,0,0,.325-.765,1.652,1.652,0,0,0-.494-.892,1.808,1.808,0,0,0-.4-.234m.058-2.165,2.1,3.79-.6.354c-.086-.109-.158-.2-.247-.309a1.54,1.54,0,0,0-.09.167,1.2,1.2,0,0,1-2,.528,2.259,2.259,0,0,1-.779-1.415,1.223,1.223,0,0,1,1.422-1.394c.057.007.114,0,.231,0-.249-.46-.48-.884-.727-1.34l.688-.382"/><path class="a" d="M154.476,652.679a.64.64,0,0,0,1,.576,1.636,1.636,0,0,0,.736-.974.6.6,0,0,0-.19-.648.637.637,0,0,0-.66-.155,1.5,1.5,0,0,0-.882,1.2m-.439.184-.309.279c-.176-.138-.343-.269-.549-.429.879-1.149,1.764-2.266,2.661-3.415.118.084.224.154.324.232s.179.151.293.247c-.3.4-.591.782-.914,1.207.14.016.217.028.295.033a1.219,1.219,0,0,1,1.133,1.527,2.146,2.146,0,0,1-1.13,1.411,1.184,1.184,0,0,1-1.762-.889c0-.046-.019-.091-.042-.2"/><path class="a" d="M170.5,684.328c-.051.3-.1.578-.149.9l-5.648-1c.053-.283.1-.523.147-.795l.777.09c-.217-.264-.415-.467-.568-.7a.965.965,0,0,1-.09-.828,1.7,1.7,0,0,1,.448-.77l.761.441c-.062.114-.11.2-.153.279a1.006,1.006,0,0,0,.481,1.494,4.935,4.935,0,0,0,1.085.346c.853.171,1.714.306,2.57.456.093.018.185.046.339.083"/><path class="a" d="M116.34,669.379v.559c-.192.067-.4.151-.613.212a.625.625,0,0,0-.476.426,1.276,1.276,0,0,1-.275.413.451.451,0,0,1-.523.129.549.549,0,0,1-.383-.433.837.837,0,0,1,.5-.907.43.43,0,0,0,.244-.5c-.029-.257-.208-.37-.429-.24a7.512,7.512,0,0,0-.689.51c-.2.152-.383.326-.593.46a1.333,1.333,0,0,1-.494.192.548.548,0,0,1-.66-.633.38.38,0,0,1,.018-.106c.3-.791.6-1.582.9-2.387a3.308,3.308,0,0,1,.831.268c-.242.649-.475,1.278-.71,1.907l.065.034a2.844,2.844,0,0,1,.239-.251,6,6,0,0,1,.792-.6.769.769,0,0,1,1.131.324,5.285,5.285,0,0,1,.3.771c.1-.016.233-.035.367-.058s.278-.053.463-.088"/><path class="a" d="M153.85,671.263c.091-.405.163-.717.227-1.029.033-.164.173-.184.291-.231q1.326-.541,2.653-1.075c.321-.13.638-.263.985-.406-.07-.217-.132-.417-.205-.653l.807-.327c.311.766.609,1.5.928,2.282-.273.116-.53.223-.819.344-.11-.247-.209-.472-.326-.735l-2.237.9c-.738.3-1.479.6-2.3.929"/><path class="a" d="M162.141,660.078a7.663,7.663,0,0,0-.686-.607.371.371,0,0,0-.6.3.669.669,0,0,0,.142.421c.283.352.71.31,1.139-.115m-1.124,1.048c.057-.116.1-.21.156-.316-.1-.047-.188-.088-.274-.125a1.313,1.313,0,0,1-.709-.765.861.861,0,0,1,.268-1.029.841.841,0,0,1,1.087-.014,6.628,6.628,0,0,1,.527.481c.139.13.278.261.421.389a.539.539,0,0,0,.116.061c.3-.18.351-.278.3-.5a.774.774,0,0,0-.783-.584c-.043-.093-.1-.2-.141-.306s-.069-.2-.109-.313a1,1,0,0,1,1.024.175,2.461,2.461,0,0,1,.7,1.064.759.759,0,0,1-.283.949c-.3.215-.612.413-.922.615a3.236,3.236,0,0,0-.978.83c-.138-.213-.258-.4-.4-.609"/><path class="a" d="M108.337,657.713a.745.745,0,0,0-.73,1,1.309,1.309,0,0,0,1.1.783.749.749,0,0,0,.708-1.019,1.325,1.325,0,0,0-1.08-.764m.157-.753a1.652,1.652,0,0,1,.056,3.3,1.768,1.768,0,0,1-1.7-1.657,1.682,1.682,0,0,1,1.644-1.646"/><path class="a" d="M116.338,650.6c-.33-.432-.7-.509-1.009-.252a.629.629,0,0,0,.011.952l1-.7m.5.7.671-.3a1.163,1.163,0,0,1-.178,1.116,1.721,1.721,0,0,1-.96.649,1.274,1.274,0,0,1-1.177-.264,2.121,2.121,0,0,1-.776-1.252,1.3,1.3,0,0,1,.52-1.357,1.345,1.345,0,0,1,1.478-.191,2.07,2.07,0,0,1,.842.816c-.546.431-1.136.784-1.671,1.2a.7.7,0,0,0,.856.371c.306-.1.414-.307.395-.787"/><path class="a" d="M126.83,645.9c-.179-.538-.52-.733-.9-.564a.609.609,0,0,0-.271.882c.38-.1.767-.208,1.173-.318m-1.1.794c.14.444.37.649.683.652s.492-.146.65-.607c.221-.02.461-.039.743-.063a1.211,1.211,0,0,1-.533.972,1.808,1.808,0,0,1-1.047.307,1.167,1.167,0,0,1-.921-.407,2.01,2.01,0,0,1-.468-1.831,1.288,1.288,0,0,1,1.092-1,1.31,1.31,0,0,1,1.44.557,1.782,1.782,0,0,1,.336.879l-1.975.545"/><path class="a" d="M165.2,665.084c.451-.172.623-.524.46-.879s-.536-.449-.977-.231l.517,1.11m-.078.938c-.3-.632-.581-1.234-.863-1.83a.636.636,0,0,0-.54.666c.012.36.176.514.71.64l.189.675a1.057,1.057,0,0,1-1.01-.295,1.661,1.661,0,0,1-.53-1.141,1.516,1.516,0,0,1,.148-.686,2.061,2.061,0,0,1,2.056-.914,1.446,1.446,0,0,1,.678,2.353,2.013,2.013,0,0,1-.838.532"/><path class="a" d="M158.709,655.192c.384-.374.409-.751.1-1.026a.63.63,0,0,0-.952.141l.847.885m.228.9c-.495-.507-.959-.985-1.421-1.459a.667.667,0,0,0-.293.817c.123.318.33.407.889.371.08.114.17.238.254.366.047.068.083.143.131.229a1.085,1.085,0,0,1-1.162-.038,2.524,2.524,0,0,1-.594-.559,1.223,1.223,0,0,1-.1-1.411,2.14,2.14,0,0,1,1.056-.983,1.354,1.354,0,0,1,1.595.365,1.339,1.339,0,0,1,.209,1.621,2.291,2.291,0,0,1-.562.681"/><path class="a" d="M146.125,646.883a.648.648,0,0,0-.112-.8.561.561,0,0,0-.658-.128.549.549,0,0,0-.382.554l1.152.372m.614.689-1.924-.614a.66.66,0,0,0,.117.855c.276.239.519.219.948-.1l.641.336a1.094,1.094,0,0,1-1.076.525,2.5,2.5,0,0,1-.814-.238,1.218,1.218,0,0,1-.7-1.194,2.174,2.174,0,0,1,.463-1.329,1.358,1.358,0,0,1,1.541-.455,1.314,1.314,0,0,1,.986,1.3,1.959,1.959,0,0,1-.178.915"/><path class="a" d="M108.023,662.124c-.385-.221-.744-.429-1.106-.633-.217-.123-.432-.254-.658-.361-.333-.16-.56-.115-.734.12a.645.645,0,0,0,.053.852,2.218,2.218,0,0,0,.429.32c.358.218.721.421,1.082.632.09.054.177.113.286.184-.126.223-.243.428-.382.675-.9-.522-1.787-1.031-2.7-1.561l.337-.614c.133.051.239.091.379.142-.017-.15-.03-.264-.04-.379a1.237,1.237,0,0,1,.138-.727.92.92,0,0,1,1.351-.445c.655.341,1.288.723,1.966,1.107l-.4.688"/><path class="a" d="M167.146,668.906l-.352-.606a.794.794,0,0,0,.008-1.024c-.066-.113-.16-.223-.317-.169-.134.045-.164.163-.159.291.006.19.022.381.031.571a6.673,6.673,0,0,1,.026.786.834.834,0,0,1-1.153.749,1.085,1.085,0,0,1-.56-.427,2.172,2.172,0,0,1-.4-1.418,1.086,1.086,0,0,1,.51-.86c.123.229.24.443.361.665a.787.787,0,0,0-.137,1.057.68.68,0,0,0,.157.193.266.266,0,0,0,.466-.182,2.374,2.374,0,0,0-.017-.356c-.016-.31-.043-.619-.042-.929a.792.792,0,0,1,.543-.8.84.84,0,0,1,.975.249,2.178,2.178,0,0,1,.514,1.453.868.868,0,0,1-.451.759"/><path class="a" d="M115.394,708.535l-.781-.508,3.119-4.808.783.506-3.121,4.81"/><path class="a" d="M164.529,698.746l-.534.764-4.692-3.286.526-.77,4.7,3.292"/><path class="a" d="M141.986,713.428l-.916.164c-.366-1.882-.724-3.725-1.092-5.616.31-.058.594-.113.916-.175.365,1.884.724,3.726,1.092,5.627"/><path class="a" d="M150.693,646.089l.732.4-1.746,3.16c.637.358,1.254.707,1.907,1.075-.108.2-.2.384-.321.6l-2.66-1.473c.7-1.257,1.382-2.493,2.088-3.77"/><path class="a" d="M163.042,663.293l-.469.354a4.355,4.355,0,0,1-.385-.475.7.7,0,0,1,.247-1.094c.373-.238.76-.45,1.14-.675.123-.072.244-.147.383-.231-.037-.119-.071-.227-.113-.363l.467-.277.245.27a.444.444,0,0,0,.141-.05.586.586,0,0,1,.833.015c.091.07.193.125.34.22-.321.193-.6.362-.906.543.078.165.149.313.236.5-.158.1-.312.195-.486.3l-.343-.469c-.482.283-.955.556-1.423.838a.236.236,0,0,0-.064.371c.046.067.1.132.157.221"/><path class="a" d="M111.759,650.966l.612-.5c.933,1.11,1.844,2.2,2.781,3.315l-.6.522c-.936-1.115-1.854-2.208-2.8-3.335"/><path class="a" d="M143.469,657c.181-.354.333-.659.494-.963.068-.128.19-.131.313-.1a1.227,1.227,0,0,1,.849.658,1.956,1.956,0,0,1-.674,2.5.569.569,0,0,1-.728-.041.4.4,0,0,1,.1-.707,2.5,2.5,0,0,0,.5-.265,1.1,1.1,0,0,0,.316-.378.446.446,0,0,0-.28-.656,2.887,2.887,0,0,0-.6-.078,1.65,1.65,0,0,0-.3.034"/><path class="a" d="M158.931,658.186l-.5-.61,2.431-1.968.44.533c-.073.094-.143.181-.236.3.293.042.581.018.772.256a.709.709,0,0,1,.194.514l-.6.227c-.047-.09-.081-.165-.12-.235a.485.485,0,0,0-.719-.241,3.978,3.978,0,0,0-.629.408c-.343.256-.673.529-1.035.817"/><path class="a" d="M110.166,669.847c.4-1.044.779-2.031,1.169-3.044.289.11.541.207.838.319-.394,1.026-.775,2.022-1.167,3.044l-.84-.319"/><path class="a" d="M153.487,649.115l.671.418-1.653,2.651-.675-.416,1.657-2.653"/><path class="a" d="M152.816,669.675a1.35,1.35,0,0,1,.733.761.7.7,0,0,1,.013.623,3.144,3.144,0,0,1-.345.582c-.281.356-.585.694-.884,1.034-.149.168-.155.163-.455.058.047-.082.086-.163.137-.236.269-.38.546-.755.808-1.14.179-.264.167-.334-.056-.557-.16-.159-.331-.308-.527-.489.1-.108.183-.214.277-.316s.2-.209.3-.32"/><path class="a" d="M146.946,655.965c-.645-.328-1.257-.642-1.891-.964.138-.271.259-.514.4-.8l1.893.96c-.139.278-.265.527-.4.8"/><path class="a" d="M149.056,656.928l-.008.008c-.087.118-.183.077-.28.016-.535-.333-1.071-.667-1.639-1.023.157-.255.3-.492.47-.763.6.374,1.183.736,1.782,1.111l-.325.651"/><path class="a" d="M158.376,695.573c-.309-.217-.586-.411-.885-.619l.537-.757.876.61-.528.766"/><path class="a" d="M118.934,701.369l.752.488a5.078,5.078,0,0,1-.566.916l-.773-.5c.2-.311.386-.594.587-.9"/><path class="a" d="M153.749,648.7c.136-.218.246-.4.381-.612l.668.409c-.131.214-.246.4-.379.616l-.67-.413"/></g></svg>