<svg xmlns="http://www.w3.org/2000/svg" xmlns:xlink="http://www.w3.org/1999/xlink" width="1101.5" height="1001.933" viewBox="0 0 1101.5 1001.933"><defs><style>.a{fill:#f9f8f6;}.b{filter:url(#a);}</style><filter id="a" x="0" y="0" width="1101.5" height="1001.933" filterUnits="userSpaceOnUse"><feOffset dy="3" input="SourceAlpha"/><feGaussianBlur stdDeviation="3" result="b"/><feFlood flood-opacity="0.161"/><feComposite operator="in" in2="b"/><feComposite in="SourceGraphic"/></filter></defs><g class="b" transform="matrix(1, 0, 0, 1, 0, 0)"><path class="a" d="M1696.4,702.638h-3.8l-.83,1.432,1.547,1.909-1.473,1.945,1.042,1.909.472,1.888-1.494,1.794,1.38,1.9.016,1.815.041.264a8.5,8.5,0,1,1-4.387,16.417,8.391,8.391,0,0,1-5.941-5.974,8.5,8.5,0,0,1,3.72-9.426l-.191-.187-.016-1.925,1.111-1.872-1.038-1.9-.094-2,.717-2.023.207-2.019-1.266-2,1.53-1.945H1654.97l.264,1.282-.134,2.023.887,1.795.456,1.925.037,2.132-.228,2.21.793,1.945a17.267,17.267,0,0,1,1.567,2,8.524,8.524,0,1,1-6.287-.208l-1.058-1.359.793-2.226-2.116-1.457.379-2.153-.228-1.961-1.168-1.721v-2l-.305-1.925-.167-.3H1619.3l.016.659,1.306,1.738.529,1.945-.57,2.1-.281,1.982-.077,1.893.72,2.018-.322,1.945-.021.435a8.544,8.544,0,1,1-5.645,1.017l.716-1.661-1.229-2.246.057-2.023.509-1.925-.582-1.888-.285-1.929.037-2.019.208-2.039H1585.53l.073.472-.321,2.869-.489,2.3.245,2.324.83,2.344-.472,2.039.378,2.1-.187.529a8.492,8.492,0,1,1-5.327.13l.342-1.567.11-2.116-1.51-2.076,1.493-2.1-1.038-2.039.053-2.023.02-2.039.3-1.152h-30.99l-.3,1.168-.81,1.986,1.453,1.754.643,1.815.639,1.831-.753,2.267,1.038,1.738.134,1.945.3,1.266a8.509,8.509,0,1,1-5.213-1.1l-.773-1.547.358-2.116-1.094-1.661-.249-1.929-1.038-1.681-.358-1.888-.358-1.9s.887-1.852.867-1.945h-29.175l.265,1.323.793,1.925.867,1.966.285,2.1-.248,2.112-.753,1.815-1.453,1.453-.4,1.831-.13.472a8.478,8.478,0,1,1-5.592.191l.228-.622,1.379-1.494-.435-2.173.265-1.961v-1.966l1.131-2.21-.924-1.961-.342-2.1-.3-.7h-31.349l-.191,1.567-1.791,1.624-.171,2.21,1.245,2.1-1,2.21,1.4,1.909.358,2.076-.02,1.266a8.483,8.483,0,1,1-5.853.358l.432-1.115-1.624-1.66.041-1.982-.684-1.872,1-2.169-.224-2.039.395-2,.586-1.966.244-.509H1443l.057,1.567.586,2.1-.6,2.21.6,2.133-.395,2.136-1.152,1.53-.814,1.6-.679,1.453a8.528,8.528,0,1,1-5.384.777l.02-.435.208-2.023,1.493-1.433.224-1.986,1.4-1.754-1.209-2.059,1.131-2.023-.281-1.961-1.192-1.832H1399l.094,2.116.077,2.055,1.3,1.7,1,1.738.737,1.832-.322,2.189.472,1.852a5.478,5.478,0,0,0,.643,1.095,8.309,8.309,0,0,1,7.7,4.765A8.556,8.556,0,0,1,1401.085,734a8.432,8.432,0,0,1-6.263-5.946,8.528,8.528,0,0,1,3.329-9.311l.02-1.868-1.078-2.1-1.526-1.909-.057-2.381-.794-2.019-.285-2.193-.851-2.1.623-1.547h-24.984l.244.753-.452,2.116-.228,2.08-.4,2.076.737,2.116.187,2.133-.281,2.1s-1.644,1.136-1.681,1.246a8.49,8.49,0,1,1-8.681,10.227,8.924,8.924,0,0,1,3.223-8.733l.831-1.888.281-1.982-.68-2.1,1.852-1.7.057-1.982.151-1.966-.358-1.945-.607-1.925-.244-.623h-28.4l-.451.737,1,2-.492,2.019.13,1.852-1.319,1.489-.191,1.852-1.075,1.457-.171,1.945s-1.38,1.225-1.245,1.225a8.306,8.306,0,0,1,7.692,4.757,8.556,8.556,0,0,1-9.552,12.042,8.483,8.483,0,0,1-2.975-15.269l-.171-.7.358-1.774-.02-2.1.415-2.153,1.343-1.6.529-1.945,1.49-1.778-1.095-2.1.513-1.961h-32.521l-.83,1.432,1.547,1.909-1.473,1.945,1.038,1.909.472,1.888-1.489,1.794,1.379,1.9.016,1.815.037.264a8.5,8.5,0,1,1-4.383,16.417,8.4,8.4,0,0,1-5.946-5.974,8.516,8.516,0,0,1,3.72-9.426l-.187-.187-.02-1.925,1.115-1.872-1.038-1.9-.094-2,.717-2.023.207-2.019-1.266-2,1.53-1.945h-32.692l.265,1.282-.13,2.023.887,1.795.452,1.925.041,2.132-.228,2.21.794,1.945a17.729,17.729,0,0,1,1.567,2,8.527,8.527,0,1,1-6.288-.208l-1.058-1.359.794-2.226L1254.3,712.7l.378-2.153-.228-1.961-1.172-1.721v-2l-.3-1.925-.171-.3h-29.155l.016.659,1.3,1.738.529,1.945-.566,2.1-.281,1.982-.077,1.893.716,2.018-.322,1.945-.016.435a8.546,8.546,0,1,1-5.649,1.017l.72-1.661-1.229-2.246.057-2.023.509-1.925-.586-1.888-.281-1.929.037-2.019.207-2.039h-28.858l.077.472-.322,2.869-.492,2.3.248,2.324.83,2.344-.472,2.039.379,2.1-.191.529a8.49,8.49,0,1,1-5.323.13l.338-1.567.114-2.116-1.51-2.076,1.493-2.1-1.042-2.039.057-2.023.02-2.039.3-1.152h-26.925l.3,1.152.021,2.039.057,2.023-1.038,2.039,1.49,2.1-1.51,2.076.114,2.116.338,1.567a8.508,8.508,0,1,1-5.323-.13l-.192-.529.379-2.1-.472-2.039.83-2.344.248-2.324-.492-2.3-.322-2.869.077-.472h-28.858l.208,2.039.036,2.019-.281,1.929-.586,1.888.509,1.925.057,2.023-1.225,2.246.716,1.661a8.456,8.456,0,1,1-5.645-1.017l-.021-.435-.322-1.945.716-2.018-.073-1.893-.285-1.982-.566-2.1.529-1.945,1.3-1.738.02-.659h-29.159l-.171.3-.3,1.925v2l-1.172,1.721-.228,1.961.378,2.153-2.116,1.457.794,2.226-1.058,1.359a8.462,8.462,0,1,1-6.288.208,17.729,17.729,0,0,1,1.567-2l.794-1.945-.224-2.21.037-2.132.452-1.925.887-1.795-.13-2.023.264-1.282h-32.691l1.53,1.945-1.265,2,.208,2.019.72,2.023-.1,2-1.038,1.9,1.115,1.872-.02,1.925-.187.187a8.5,8.5,0,0,1,3.72,9.426,8.4,8.4,0,0,1-5.946,5.974A8.5,8.5,0,1,1,1044.2,717.5l.037-.264.021-1.815,1.375-1.9-1.49-1.794.472-1.888,1.038-1.909-1.473-1.945,1.551-1.909-.834-1.432h-32.517l.509,1.961-1.095,2.1,1.489,1.778.529,1.945,1.343,1.6.415,2.153-.021,2.1.359,1.774-.167.7a8.513,8.513,0,1,1-12.531,3.227,8.307,8.307,0,0,1,7.7-4.757,11.191,11.191,0,0,0-1.249-1.225l-.167-1.945-1.078-1.457-.187-1.852-1.323-1.489.13-1.852-.488-2.019,1-2-.456-.737h-28.4l-.244.623-.606,1.925-.358,1.945.151,1.966.057,1.982,1.852,1.7-.68,2.1.285,1.982.83,1.888a8.929,8.929,0,0,1,3.219,8.733,8.5,8.5,0,1,1-8.677-10.227c-.041-.11-1.685-1.246-1.685-1.246l-.281-2.1.187-2.133.737-2.116-.395-2.076-.228-2.08-.452-2.116.244-.753H947.657l.623,1.547-.851,2.1-.281,2.193-.794,2.019-.057,2.381-1.53,1.909-1.079,2.1.021,1.868a8.528,8.528,0,0,1,3.329,9.311A8.431,8.431,0,0,1,940.775,734a8.556,8.556,0,0,1-9.617-12.022,8.309,8.309,0,0,1,7.7-4.765,5.482,5.482,0,0,0,.643-1.095l.472-1.852-.322-2.189.737-1.832,1-1.738,1.3-1.7.078-2.055.093-2.116H904.844l-1.188,1.832-.285,1.961,1.131,2.023-1.209,2.059,1.4,1.754.228,1.986,1.489,1.433.208,2.023.021.435a8.476,8.476,0,1,1-5.384-.777l-.679-1.453-.81-1.6-1.151-1.53-.4-2.136.606-2.133-.606-2.21.586-2.1.057-1.567H870.077l.244.509.586,1.966.4,2-.228,2.039,1,2.169-.68,1.872.036,1.982-1.624,1.66.435,1.115a8.52,8.52,0,1,1-5.856-.358l-.016-1.266.358-2.076,1.4-1.909-1-2.21,1.245-2.1-.167-2.21-1.795-1.624-.191-1.567H832.872l-.3.7-.338,2.1-.928,1.961,1.131,2.21v1.966l.264,1.961-.431,2.173,1.38,1.494.224.622a8.526,8.526,0,1,1-5.588-.191l-.134-.472-.395-1.831-1.457-1.453-.753-1.815-.248-2.112.285-2.1.871-1.966.789-1.925.264-1.323H798.333c-.02.094.867,1.945.867,1.945l-.358,1.9-.358,1.888-1.038,1.681-.248,1.929-1.095,1.661.358,2.116-.773,1.547a8.474,8.474,0,1,1-5.214,1.1l.305-1.266.13-1.945,1.038-1.738-.753-2.267.643-1.831.639-1.815,1.457-1.754-.814-1.986-.3-1.168h-30.99l.3,1.152.02,2.039.057,2.023-1.042,2.039,1.493,2.1-1.51,2.076.114,2.116.338,1.567a8.507,8.507,0,1,1-5.323-.13l-.191-.529.379-2.1-.472-2.039.83-2.344.248-2.324-.492-2.3-.322-2.869.073-.472H727.476l.207,2.039.037,2.019-.281,1.929-.586,1.888.509,1.925.057,2.023-1.229,2.246.72,1.661a8.458,8.458,0,1,1-5.649-1.017l-.016-.435-.322-1.945.716-2.018-.073-1.893-.285-1.982-.566-2.1.529-1.945,1.3-1.738.016-.659H693.409l-.171.3-.3,1.925v2l-1.172,1.721-.228,1.961.378,2.153-2.116,1.457.793,2.226-1.058,1.359a8.466,8.466,0,1,1-6.288.208,17.73,17.73,0,0,1,1.567-2l.794-1.945-.228-2.21.041-2.132.452-1.925.887-1.795-.13-2.023.265-1.282H654.2l1.53,1.945-1.266,2,.207,2.019.716,2.023-.094,2-1.038,1.9,1.115,1.872-.02,1.925-.187.187a8.516,8.516,0,0,1,3.72,9.426,8.4,8.4,0,0,1-5.946,5.974,8.5,8.5,0,1,1-4.383-16.417l.037-.264.016-1.815,1.38-1.9-1.489-1.794.472-1.888,1.038-1.909-1.473-1.945,1.547-1.909-.83-1.432h-3.793a16.277,16.277,0,0,0-16.279,16.279v967.655h1083.5V718.916A16.28,16.28,0,0,0,1696.4,702.638Z" transform="translate(-620.18 -696.64)"/></g></svg>