<svg xmlns="http://www.w3.org/2000/svg" width="25.839" height="32.5" viewBox="0 0 25.839 32.5"><defs><style>.a{fill:#fff;}</style></defs><g transform="translate(-52.463)"><path class="a" d="M61.794,116H53.415a.952.952,0,0,0-.317,1.849v5.324h9.014v-5.324A.952.952,0,0,0,61.794,116Z" transform="translate(0 -108.637)"/><path class="a" d="M210.447,1.9h.637V12.267l0,0V19.8h.023a3.652,3.652,0,0,1,1.487.4,1.213,1.213,0,0,0,1.44,0,2.977,2.977,0,0,1,2.974,0,1.213,1.213,0,0,0,1.44,0,2.977,2.977,0,0,1,2.974,0,1.213,1.213,0,0,0,1.44,0,3.653,3.653,0,0,1,1.487-.4,3.456,3.456,0,0,1,.808.1,10.5,10.5,0,0,0-6.451-7.639V1.9h.637a.952.952,0,0,0,0-1.9h-8.892a.952.952,0,1,0,0,1.9Zm6.57,14.218a.952.952,0,1,1-.952.952A.954.954,0,0,1,217.017,16.123Z" transform="translate(-147.064)"/><path class="a" d="M234.7,342.267a3.082,3.082,0,0,0-1.021-.268,2.2,2.2,0,0,0-.72.237,2.977,2.977,0,0,1-2.974,0,1.213,1.213,0,0,0-1.44,0,2.977,2.977,0,0,1-2.974,0,1.213,1.213,0,0,0-1.44,0,2.977,2.977,0,0,1-2.974,0,2.2,2.2,0,0,0-.72-.237h-.023v6.282a6.372,6.372,0,0,1-.953,3.359,10.471,10.471,0,0,0,15.239-9.325C234.7,342.3,234.7,342.284,234.7,342.267Zm-11.144,3.6a.952.952,0,1,1,.952-.952A.954.954,0,0,1,223.552,345.871Zm3.491,1.9a.952.952,0,1,1,.952-.952A.954.954,0,0,1,227.043,347.775Z" transform="translate(-156.394 -320.29)"/><path class="a" d="M62.463,260.714h1.952a.952.952,0,1,1,0,1.9H62.463v1.9h1.952a.952.952,0,1,1,0,1.9H62.463v1.9h1.952a.952.952,0,1,1,0,1.9H62.463v.317a4.507,4.507,0,1,0,9.014,0V259H62.463Z" transform="translate(-9.365 -242.56)"/></g></svg>