<svg xmlns="http://www.w3.org/2000/svg" width="29.562" height="26.155" viewBox="0 0 29.562 26.155"><defs><style>.a{fill:#a25723;}</style></defs><g transform="translate(0 -59)"><g transform="translate(0 59)"><path class="a" d="M26.606,59H8.869a2.965,2.965,0,0,0-2.956,2.956V80.721a1.478,1.478,0,0,1-2.956,0V64.462a1.59,1.59,0,0,0-1.478-1.478A1.59,1.59,0,0,0,0,64.462V82.2a2.965,2.965,0,0,0,2.956,2.956h23.65A2.965,2.965,0,0,0,29.562,82.2V61.956A2.965,2.965,0,0,0,26.606,59Zm-7.39,14.781H10.347A1.481,1.481,0,0,1,8.869,72.3a1.59,1.59,0,0,1,1.478-1.478h8.869A1.59,1.59,0,0,1,20.693,72.3,1.481,1.481,0,0,1,19.215,73.781Zm5.912-5.912H10.347A1.481,1.481,0,0,1,8.869,66.39a1.59,1.59,0,0,1,1.478-1.478H25.128a1.59,1.59,0,0,1,1.478,1.478A1.481,1.481,0,0,1,25.128,67.869Z" transform="translate(0 -59)"/></g></g></svg>