<svg xmlns="http://www.w3.org/2000/svg" width="14.719" height="14.719" viewBox="0 0 14.719 14.719"><defs><style>.a{fill:#fff;}</style></defs><g transform="translate(-436 -436)"><path class="a" d="M443.109,442.406a.7.7,0,0,0-.7.7v7.733a.7.7,0,0,0,.7.7h7.733a.7.7,0,0,0,.7-.7v-7.733a.7.7,0,0,0-.7-.7Zm0-1.406h7.733a2.109,2.109,0,0,1,2.109,2.109v7.733a2.109,2.109,0,0,1-2.109,2.109h-7.733A2.109,2.109,0,0,1,441,450.842v-7.733A2.109,2.109,0,0,1,443.109,441Z" transform="translate(-2.232 -2.232)"/><path class="a" d="M446.545,438.812h1.406v-.7A2.109,2.109,0,0,0,445.842,436h-7.733A2.109,2.109,0,0,0,436,438.109v7.733a2.109,2.109,0,0,0,2.109,2.109h.7v-1.406h-.7a.7.7,0,0,1-.7-.7v-7.733a.7.7,0,0,1,.7-.7h7.733a.7.7,0,0,1,.7.7Z"/></g></svg>