<svg xmlns="http://www.w3.org/2000/svg" width="22.792" height="18.338" viewBox="0 0 22.792 18.338">
    <path fill="#00a9ff" d="M599.646 233.381a9.539 9.539 0 0 1-2.47.631 4.653 4.653 0 0 0 2-2.379.073.073 0 0 0-.1-.087 9.483 9.483 0 0 1-2.819 1.029 4.728 4.728 0 0 0-3.434-1.462 4.631 4.631 0 0 0-4.58 5.684 13.431 13.431 0 0 1-9.67-4.809.026.026 0 0 0-.043 0 4.584 4.584 0 0 0 1.393 6.092.029.029 0 0 1-.018.053 4.752 4.752 0 0 1-1.992-.554.024.024 0 0 0-.036.021 6.265 6.265 0 0 0 .318 1.694 4.745 4.745 0 0 0 3.455 2.863 4.929 4.929 0 0 1-1.242.164 4.7 4.7 0 0 1-.843-.079.026.026 0 0 0-.03.034 4.7 4.7 0 0 0 4.3 3.17.028.028 0 0 1 .017.051 9.516 9.516 0 0 1-5.779 1.935 9.8 9.8 0 0 1-1.12-.064 13.471 13.471 0 0 0 7.208 2.079 13.1 13.1 0 0 0 8.811-3.181 13.579 13.579 0 0 0 4.251-7.2 12.719 12.719 0 0 0 .322-2.795c0-.2-.005-.4-.015-.6a9.457 9.457 0 0 0 2.2-2.192.072.072 0 0 0-.084-.098z" transform="translate(-576.955 -231.113)"/>
</svg>
