<svg xmlns="http://www.w3.org/2000/svg" width="29.58" height="20.961" viewBox="0 0 29.58 20.961"><defs><style>.a{fill:none;stroke:#603312;stroke-width:2px;}</style></defs><g transform="translate(1 1)"><g transform="translate(0 0)"><path class="a" d="M267.408,247.515c-.748-1.331-1.56-1.576-3.213-1.669-1.651-.112-5.8-.158-9.4-.158s-7.759.046-9.409.156c-1.649.095-2.463.338-3.219,1.67S241,251.133,241,255.163v.014c0,4.013.4,6.32,1.167,7.635s1.568,1.572,3.217,1.684c1.651.1,5.806.154,9.41.154s7.75-.057,9.4-.153c1.653-.111,2.465-.353,3.213-1.683.778-1.316,1.17-3.622,1.17-7.635v-.014C268.58,251.133,268.188,248.844,267.408,247.515ZM251.343,260.34V250l8.619,5.171Z" transform="translate(-241 -245.688)"/></g></g></svg>