<svg xmlns="http://www.w3.org/2000/svg" width="13.292" height="13.292" viewBox="0 0 13.292 13.292"><path d="M11.735,1.038h-.623V0H10.073V1.038H3.22V0H2.181V1.038H1.558A1.56,1.56,0,0,0,0,2.6v9.139a1.56,1.56,0,0,0,1.558,1.557H8.944l4.348-4.516V2.6A1.56,1.56,0,0,0,11.735,1.038ZM9.243,11.485V9.606a.52.52,0,0,1,.519-.52h1.791Zm3.011-3.437H9.762A1.559,1.559,0,0,0,8.2,9.606v2.648H1.558a.52.52,0,0,1-.52-.519V4.881H12.254Zm0-4.205H1.038V2.6a.52.52,0,0,1,.52-.52h.623V3.115H3.22V2.077h6.854V3.115h1.038V2.077h.623a.52.52,0,0,1,.519.52Z"/></svg>