<svg xmlns="http://www.w3.org/2000/svg" width="33" height="33" viewBox="0 0 33 33"><defs><style>.a{fill:#603312;}.b{fill:#fff;}</style></defs><circle class="a" cx="16.5" cy="16.5" r="16.5"/><g transform="translate(7.882 6.101)"><g transform="translate(0 0)"><path class="b" d="M286.91,8.811a9.406,9.406,0,0,0-1.006,3.5,3.866,3.866,0,0,1,1,.195l.049-.016a15.534,15.534,0,0,1,.6-3.376.453.453,0,0,1,.437-.293,5.041,5.041,0,0,0,5.468-4.166,7.426,7.426,0,0,0-.727-4.458A.353.353,0,0,0,292.165.1c-.367.364-.745.722-1.143,1.049-1.2.988-2.806,1.4-4.044,2.359s-2.116,2.727-1.281,4.236a4.66,4.66,0,0,0,.612.793,4.7,4.7,0,0,1,1.365-1.72A18.465,18.465,0,0,0,290.246,4.3a7.009,7.009,0,0,0,1.293-2.314,9.643,9.643,0,0,1-1.365,3.066C289.276,6.438,287.815,7.421,286.91,8.811Z" transform="translate(-277.74 -0.002)"/><path class="b" d="M23.271,475.644c0-.013,0-.026,0-.038a1.55,1.55,0,0,0-1.708-1.313q-.088,0-.174.007a2.57,2.57,0,0,0-2.316-1.21,3.071,3.071,0,0,0-1.245.256l-.006,0a3.041,3.041,0,0,0-1.083-.25c-.052,0-.1,0-.156,0a2.88,2.88,0,0,0-1.809.6,2.825,2.825,0,0,0-1.5-.412,2.243,2.243,0,0,0-2.35,1.593.971.971,0,0,0-.956.852.67.67,0,0,0,.007.1,2.253,2.253,0,0,0-1.31,1.1H25.057A2.657,2.657,0,0,0,23.271,475.644Z" transform="translate(-8.666 -460.05)"/></g></g></svg>