<svg xmlns="http://www.w3.org/2000/svg" width="30" height="30" viewBox="0 0 30 30"><defs><style>.a{fill:#a8a8a8;}</style></defs><path class="a" d="M15,30A15,15,0,1,1,30,15,15.017,15.017,0,0,1,15,30ZM15,1.875A13.125,13.125,0,1,0,28.125,15,13.139,13.139,0,0,0,15,1.875Zm0,0"/><path class="a" d="M161.754,171.931a.938.938,0,0,1-.663-1.6l9.281-9.281a.938.938,0,0,1,1.326,1.326l-9.281,9.281a.938.938,0,0,1-.664.275Zm0,0" transform="translate(-151.394 -151.354)"/><path class="a" d="M171.013,171.95a.93.93,0,0,1-.662-.275l-9.281-9.28a.938.938,0,0,1,1.326-1.326l9.281,9.281a.937.937,0,0,1-.664,1.6Zm0,0" transform="translate(-151.373 -151.373)"/></svg>