<svg xmlns="http://www.w3.org/2000/svg" width="16.132" height="18" viewBox="0 0 16.132 18"><defs><style>.a{fill:#a25723;}</style></defs><path class="a" d="M33.852,16.594H29.813a1.411,1.411,0,0,1-1.41-1.406V4.57a1.411,1.411,0,0,1,1.41-1.406h2.211v.352a2.109,2.109,0,0,0,4.219,0V3.164h2.215A1.408,1.408,0,0,1,39.863,4.57V9.985a.7.7,0,0,0,1.406,0V4.57a2.816,2.816,0,0,0-2.813-2.813H36.242V.7a.7.7,0,0,0-.7-.7H32.727a.7.7,0,0,0-.7.7V1.758H29.813A2.816,2.816,0,0,0,27,4.57V15.188A2.816,2.816,0,0,0,29.813,18h4.039a.7.7,0,0,0,0-1.406ZM33.429,1.406h1.406v2.11a.7.7,0,0,1-1.406,0ZM43,12.433l-3.48,4.861-.023.031A1.811,1.811,0,0,1,38.208,18c-.04,0-.08,0-.119,0a1.813,1.813,0,0,1-1.248-.5L34.6,15.345a.7.7,0,1,1,.974-1.014l2.244,2.154a.4.4,0,0,0,.578-.03l3.465-4.841A.7.7,0,0,1,43,12.433ZM31.848,8.4a.7.7,0,0,1-.7.7h-.351a.7.7,0,0,1,0-1.406h.351A.7.7,0,0,1,31.848,8.4Zm6.4,0a.7.7,0,0,1-.7.7H33.606a.7.7,0,0,1,0-1.406h3.938A.7.7,0,0,1,38.246,8.4Zm-6.4,2.813a.7.7,0,0,1-.7.7h-.351a.7.7,0,0,1,0-1.406h.351A.7.7,0,0,1,31.848,11.215Zm6.4,0a.7.7,0,0,1-.7.7H33.606a.7.7,0,0,1,0-1.406h3.938A.7.7,0,0,1,38.246,11.215Z" transform="translate(-27)"/></svg>