<svg xmlns="http://www.w3.org/2000/svg" width="15.599" height="14.299" viewBox="0 0 15.599 14.299"><defs><style>.a{fill:#fff;}</style></defs><g transform="translate(-0.012 -42.667)"><g transform="translate(0.013 44.616)"><g transform="translate(0 2.556)"><path class="a" d="M4.075,56.888a2.434,2.434,0,0,1-2.3-1.658l-.023-.075a2.381,2.381,0,0,1-.113-.7V50.019L.06,55.283A1.477,1.477,0,0,0,1.1,57.073l10.051,2.692a1.491,1.491,0,0,0,.374.048,1.45,1.45,0,0,0,1.4-1.063l.586-1.862Z" transform="translate(-0.013 -50.019)"/></g><path class="a" d="M8.736,48.448a1.3,1.3,0,1,0-1.3-1.3A1.3,1.3,0,0,0,8.736,48.448Z" transform="translate(-2.887 -45.848)"/></g><path class="a" d="M15.629,42.667H5.879a1.627,1.627,0,0,0-1.625,1.625v7.15a1.627,1.627,0,0,0,1.625,1.625h9.75a1.627,1.627,0,0,0,1.625-1.625v-7.15A1.627,1.627,0,0,0,15.629,42.667Zm-9.75,1.3h9.75a.325.325,0,0,1,.325.325v4.614L13.9,46.51a1.162,1.162,0,0,0-.871-.4,1.136,1.136,0,0,0-.868.41l-2.415,2.9-.786-.784a1.141,1.141,0,0,0-1.612,0L5.554,50.427V44.292a.325.325,0,0,1,.325-.325Z" transform="translate(-1.642)"/></g></svg>