<svg xmlns="http://www.w3.org/2000/svg" width="17" height="17" viewBox="0 0 17 17"><defs><style>.a{fill:#fff;}</style></defs><path class="a" d="M16.49,14.11l-2.38-2.38A7.41,7.41,0,0,0,15.3,7.65,7.65,7.65,0,1,0,7.65,15.3a7.41,7.41,0,0,0,4.08-1.19l2.38,2.38a1.683,1.683,0,0,0,2.38-2.38ZM7.65,13.6A5.95,5.95,0,1,1,13.6,7.65,5.913,5.913,0,0,1,7.65,13.6Z"/><path class="a" d="M11.05,6.8H8.5V4.25a.8.8,0,0,0-.85-.85.852.852,0,0,0-.85.85V6.8H4.25a.852.852,0,0,0-.85.85.8.8,0,0,0,.85.85H6.8v2.55a.8.8,0,0,0,.85.85.8.8,0,0,0,.85-.85V8.5h2.55a.8.8,0,0,0,.85-.85A.852.852,0,0,0,11.05,6.8Z"/></svg>