<svg xmlns="http://www.w3.org/2000/svg" width="11.221" height="17.254" viewBox="0 0 11.221 17.254"><defs><style>.a{fill:#3c3935;}</style></defs><path class="a" d="M99.387,17.254a1.349,1.349,0,0,0,1.348-1.348V1.348A1.35,1.35,0,0,0,99.387,0H90.862a1.35,1.35,0,0,0-1.348,1.348V15.906a1.349,1.349,0,0,0,1.348,1.348ZM97.338,1.011l-.17.522H93.081l-.17-.522Zm-6.476,0h.986l.385,1.184a.5.5,0,0,0,.481.349h4.822a.5.5,0,0,0,.481-.349L98.4,1.011h.986a.338.338,0,0,1,.337.337V13.412h-9.2V1.348a.338.338,0,0,1,.337-.337Zm-.337,14.9V14.423h9.2v1.483a.337.337,0,0,1-.337.337H90.862a.337.337,0,0,1-.337-.337Zm3.454-.573a.505.505,0,0,1,.505-.505h1.28a.505.505,0,0,1,0,1.011h-1.28A.506.506,0,0,1,93.979,15.333Z" transform="translate(-89.514)"/></svg>