<svg xmlns="http://www.w3.org/2000/svg" width="13.99" height="13.99" viewBox="0 0 13.99 13.99"><defs><style>.a{fill:#3e3e3e;}</style></defs><g transform="translate(0 -0.001)"><g transform="translate(0 0.001)"><g transform="translate(0 0)"><circle class="a" cx="0.546" cy="0.546" r="0.546" transform="translate(8.689 8.908)"/><path class="a" d="M6.5,12.9H2.186a1.094,1.094,0,0,1-1.093-1.093V7.324A1.094,1.094,0,0,1,2.186,6.231h7.869a1.094,1.094,0,0,1,1.093,1.093V8.417a.546.546,0,0,0,1.093,0V7.324a2.188,2.188,0,0,0-2.186-2.186H9.4V3.211A3.249,3.249,0,0,0,6.12,0a3.249,3.249,0,0,0-3.279,3.21V5.138H2.186A2.188,2.188,0,0,0,0,7.324v4.481a2.188,2.188,0,0,0,2.186,2.186H6.5a.546.546,0,1,0,0-1.093ZM3.934,3.211A2.155,2.155,0,0,1,6.12,1.094,2.155,2.155,0,0,1,8.306,3.211V5.138H3.934V3.211Z" transform="translate(0 -0.001)"/><path class="a" d="M269.615,322.1a.546.546,0,0,0-.762.126l-2.694,3.763a.312.312,0,0,1-.449.023l-1.741-1.7a.546.546,0,1,0-.763.782l1.744,1.7,0,0a1.409,1.409,0,0,0,.969.387q.046,0,.093,0a1.409,1.409,0,0,0,1-.522l.018-.024,2.7-3.778A.547.547,0,0,0,269.615,322.1Z" transform="translate(-255.853 -313.201)"/><circle class="a" cx="0.546" cy="0.546" r="0.546" transform="translate(6.613 8.908)"/><circle class="a" cx="0.546" cy="0.546" r="0.546" transform="translate(2.514 8.908)"/><circle class="a" cx="0.546" cy="0.546" r="0.546" transform="translate(4.563 8.908)"/></g></g></g></svg>