<svg xmlns="http://www.w3.org/2000/svg" width="13.56" height="13.56" viewBox="0 0 13.56 13.56"><defs><style>.a{fill:#3c3935;}</style></defs><path class="a" d="M13.527,11.619a.53.53,0,0,0-1.037.216.552.552,0,0,1-.113.464.536.536,0,0,1-.423.2H1.609a.538.538,0,0,1-.424-.2.552.552,0,0,1-.112-.464A5.852,5.852,0,0,1,6.647,7.2c.045,0,.219,0,.261,0a5.826,5.826,0,0,1,4.721,2.586.53.53,0,0,0,.88-.59A6.893,6.893,0,0,0,8.938,6.485a3.6,3.6,0,1,0-4.311,0A6.887,6.887,0,0,0,.036,11.619,1.609,1.609,0,0,0,1.609,13.56H11.954a1.61,1.61,0,0,0,1.573-1.941ZM4.239,3.6A2.543,2.543,0,0,1,9.29,3.189a5.708,5.708,0,0,1-2.165-.531,3.014,3.014,0,0,1-.766-.516.529.529,0,0,0-.928.348.477.477,0,0,0,.1.318,5.337,5.337,0,0,0,3.71,1.44A2.547,2.547,0,0,1,6.908,6.141H6.657A2.546,2.546,0,0,1,4.239,3.6Z" transform="translate(-0.002)"/></svg>